# MagicaVoxel @ Ephtracy

# group
o 

# material
mtllib Schwert_Hotdog.mtl
usemtl palette

# normals
vn -1 0 0
vn 1 0 0
vn 0 0 1
vn 0 0 -1
vn 0 -1 0
vn 0 1 0

# texcoords
vt 0.115234 0.5
vt 0.150391 0.5
vt 0.310547 0.5
vt 0.333984 0.5
vt 0.458984 0.5
vt 0.462891 0.5
vt 0.482422 0.5
vt 0.486328 0.5
vt 0.490234 0.5
vt 0.912109 0.5

# verts
v -0.9 0.9 2.9
v -0.9 0.9 2.6
v -0.9 1 2.9
v -0.9 1 2.6
v -0.9 1.2 2.9
v -0.9 1.2 2.6
v -0.7 0.6 2.8
v -0.7 0.6 2.7
v -0.7 0.9 2.8
v -0.7 0.9 2.7
v -0.4 -0.8 2.9
v -0.4 -0.8 2.4
v -0.4 -1.19209e-007 2.9
v -0.4 -1.19209e-007 2.4
v -0.4 1.2 2.9
v -0.4 1.2 2.6
v -0.4 1.3 2.9
v -0.4 1.3 2.6
v -0.3 -1.19209e-007 2.8
v -0.3 -1.19209e-007 2.7
v -0.3 0.6 2.8
v -0.3 0.6 2.7
v -0.3 1.3 2.8
v -0.3 1.3 2.7
v -0.3 1.6 2.8
v -0.3 1.6 2.7
v -0.3 1.7 2.8
v -0.3 1.7 2.7
v -0.3 1.8 2.8
v -0.3 1.8 2.7
v -0.3 1.9 2.8
v -0.3 1.9 2.7
v -0.3 2 2.8
v -0.3 2 2.7
v -0.3 2.1 2.8
v -0.3 2.1 2.7
v -0.3 2.2 2.8
v -0.3 2.2 2.7
v -0.3 2.3 2.8
v -0.3 2.3 2.7
v -0.3 2.4 2.8
v -0.3 2.4 2.7
v -0.3 2.5 2.8
v -0.3 2.5 2.7
v -0.2 -1 2.7
v -0.2 -1 2.5
v -0.2 -0.9 2.7
v -0.2 -0.9 2.6
v -0.2 -0.8 2.7
v -0.2 -0.8 2.6
v -0.2 -0.8 2.5
v -0.2 -1.19209e-007 2.7
v -0.2 -1.19209e-007 2.6
v -0.2 -1.19209e-007 2.5
v -0.2 0.0999999 2.7
v -0.2 0.0999999 2.6
v -0.2 0.2 2.7
v -0.2 0.2 2.5
v -0.2 2.5 2.8
v -0.2 2.5 2.7
v -0.2 2.6 2.8
v -0.2 2.6 2.7
v 0 -0.8 2.5
v 0 -0.8 2.4
v 0 -0.7 2.5
v 0 -0.6 2.5
v 0 -0.5 2.5
v 0 -0.4 2.5
v 0 -0.3 2.5
v 0 -0.2 2.5
v 0 -1.19209e-007 2.5
v 0 -1.19209e-007 2.4
v -0.2 -0.8 2.5
v -0.2 -0.8 2.4
v -0.2 -0.6 2.5
v -0.2 -0.5 2.5
v -0.2 -0.4 2.5
v -0.2 -0.3 2.5
v -0.2 -0.2 2.5
v -0.2 -0.1 2.5
v -0.2 -1.19209e-007 2.5
v -0.2 -1.19209e-007 2.4
v 0 -1 2.7
v 0 -1 2.5
v 0 -0.9 2.7
v 0 -0.9 2.6
v 0 -0.8 2.7
v 0 -0.8 2.6
v 0 -0.8 2.5
v 0 -1.19209e-007 2.7
v 0 -1.19209e-007 2.5
v 0 0.0999999 2.6
v 0 0.0999999 2.5
v 0 0.2 2.7
v 0 0.2 2.6
v 0 0.2 2.5
v 0 2.5 2.8
v 0 2.5 2.7
v 0 2.6 2.8
v 0 2.6 2.7
v 0.1 -1.19209e-007 2.8
v 0.1 -1.19209e-007 2.7
v 0.1 0.6 2.8
v 0.1 0.6 2.7
v 0.1 1.3 2.8
v 0.1 1.3 2.7
v 0.1 1.6 2.8
v 0.1 1.6 2.7
v 0.1 1.7 2.8
v 0.1 1.7 2.7
v 0.1 1.8 2.8
v 0.1 1.8 2.7
v 0.1 1.9 2.8
v 0.1 1.9 2.7
v 0.1 2 2.8
v 0.1 2 2.7
v 0.1 2.1 2.8
v 0.1 2.1 2.7
v 0.1 2.2 2.8
v 0.1 2.2 2.7
v 0.1 2.3 2.8
v 0.1 2.3 2.7
v 0.1 2.4 2.8
v 0.1 2.4 2.7
v 0.1 2.5 2.8
v 0.1 2.5 2.7
v 0.2 -0.8 2.9
v 0.2 -0.8 2.4
v 0.2 -1.19209e-007 2.9
v 0.2 -1.19209e-007 2.4
v 0.2 1.2 2.9
v 0.2 1.2 2.6
v 0.2 1.3 2.9
v 0.2 1.3 2.6
v 0.5 0.6 2.8
v 0.5 0.6 2.7
v 0.5 0.9 2.8
v 0.5 0.9 2.7
v 0.7 0.9 2.9
v 0.7 0.9 2.6
v 0.7 1 2.9
v 0.7 1 2.6
v 0.7 1.2 2.9
v 0.7 1.2 2.6
v -0.9 0.9 2.9
v -0.9 1 2.9
v -0.9 1.2 2.9
v -0.4 -0.8 2.9
v -0.4 -1.19209e-007 2.9
v -0.4 1.2 2.9
v -0.4 1.3 2.9
v 0.2 -0.8 2.9
v 0.2 -1.19209e-007 2.9
v 0.2 1.2 2.9
v 0.2 1.3 2.9
v 0.7 0.9 2.9
v 0.7 1 2.9
v 0.7 1.2 2.9
v -0.7 0.6 2.8
v -0.7 0.9 2.8
v -0.4 0.8 2.8
v -0.4 0.9 2.8
v -0.3 -1.19209e-007 2.8
v -0.3 0.6 2.8
v -0.3 0.7 2.8
v -0.3 0.8 2.8
v -0.3 1.3 2.8
v -0.3 1.6 2.8
v -0.3 1.7 2.8
v -0.3 1.8 2.8
v -0.3 1.9 2.8
v -0.3 2 2.8
v -0.3 2.1 2.8
v -0.3 2.2 2.8
v -0.3 2.3 2.8
v -0.3 2.4 2.8
v -0.3 2.5 2.8
v -0.2 0.6 2.8
v -0.2 0.7 2.8
v -0.2 2.5 2.8
v -0.2 2.6 2.8
v -0.1 -1.19209e-007 2.8
v -0.1 0.6 2.8
v -0.1 0.9 2.8
v 0 2.5 2.8
v 0 2.6 2.8
v 0.1 -1.19209e-007 2.8
v 0.1 0.6 2.8
v 0.1 1.3 2.8
v 0.1 1.6 2.8
v 0.1 1.7 2.8
v 0.1 1.8 2.8
v 0.1 1.9 2.8
v 0.1 2 2.8
v 0.1 2.1 2.8
v 0.1 2.2 2.8
v 0.1 2.3 2.8
v 0.1 2.4 2.8
v 0.1 2.5 2.8
v 0.5 0.6 2.8
v 0.5 0.9 2.8
v -0.2 -1 2.7
v -0.2 -0.9 2.7
v -0.2 -0.8 2.7
v 0 -1 2.7
v 0 -0.9 2.7
v 0 -0.8 2.7
v -0.7 0.6 2.7
v -0.7 0.9 2.7
v -0.4 0.8 2.7
v -0.4 0.9 2.7
v -0.3 -1.19209e-007 2.7
v -0.3 0.6 2.7
v -0.3 0.7 2.7
v -0.3 0.8 2.7
v -0.3 1.3 2.7
v -0.3 1.6 2.7
v -0.3 1.7 2.7
v -0.3 1.8 2.7
v -0.3 1.9 2.7
v -0.3 2 2.7
v -0.3 2.1 2.7
v -0.3 2.2 2.7
v -0.3 2.3 2.7
v -0.3 2.4 2.7
v -0.3 2.5 2.7
v -0.2 -1.19209e-007 2.7
v -0.2 0.0999999 2.7
v -0.2 0.2 2.7
v -0.2 0.6 2.7
v -0.2 0.7 2.7
v -0.2 2.5 2.7
v -0.2 2.6 2.7
v -0.1 0.2 2.7
v -0.1 0.6 2.7
v -0.1 0.9 2.7
v 0 -1.19209e-007 2.7
v 0 0.2 2.7
v 0 2.5 2.7
v 0 2.6 2.7
v 0.1 -1.19209e-007 2.7
v 0.1 0.6 2.7
v 0.1 1.3 2.7
v 0.1 1.6 2.7
v 0.1 1.7 2.7
v 0.1 1.8 2.7
v 0.1 1.9 2.7
v 0.1 2 2.7
v 0.1 2.1 2.7
v 0.1 2.2 2.7
v 0.1 2.3 2.7
v 0.1 2.4 2.7
v 0.1 2.5 2.7
v 0.5 0.6 2.7
v 0.5 0.9 2.7
v -0.9 0.9 2.6
v -0.9 1 2.6
v -0.9 1.2 2.6
v -0.4 1.2 2.6
v -0.4 1.3 2.6
v 0.2 1.2 2.6
v 0.2 1.3 2.6
v 0.7 0.9 2.6
v 0.7 1 2.6
v 0.7 1.2 2.6
v -0.2 -1 2.5
v -0.2 -0.8 2.5
v -0.2 -0.6 2.5
v -0.2 -0.5 2.5
v -0.2 -0.4 2.5
v -0.2 -0.3 2.5
v -0.2 -0.2 2.5
v -0.2 -0.1 2.5
v -0.2 -1.19209e-007 2.5
v -0.2 0.2 2.5
v -0.1 -0.7 2.5
v -0.1 -0.6 2.5
v -0.1 -0.5 2.5
v -0.1 -0.4 2.5
v -0.1 -0.3 2.5
v -0.1 -0.2 2.5
v -0.1 -0.1 2.5
v -0.1 0.0999999 2.5
v -0.1 0.2 2.5
v 0 -1 2.5
v 0 -0.8 2.5
v 0 -0.7 2.5
v 0 -0.6 2.5
v 0 -0.5 2.5
v 0 -0.4 2.5
v 0 -0.3 2.5
v 0 -0.2 2.5
v 0 -1.19209e-007 2.5
v 0 0.0999999 2.5
v 0 0.2 2.5
v -0.4 -0.8 2.4
v -0.4 -1.19209e-007 2.4
v -0.2 -0.8 2.4
v -0.2 -1.19209e-007 2.4
v 0 -0.8 2.4
v 0 -1.19209e-007 2.4
v 0.2 -0.8 2.4
v 0.2 -1.19209e-007 2.4
v -0.2 -1 2.7
v 0 -1 2.7
v -0.2 -1 2.5
v 0 -1 2.5
v -0.4 -0.8 2.9
v 0.2 -0.8 2.9
v -0.2 -0.8 2.7
v 0 -0.8 2.7
v -0.2 -0.8 2.6
v 0 -0.8 2.6
v -0.2 -0.8 2.5
v 0 -0.8 2.5
v -0.4 -0.8 2.4
v -0.2 -0.8 2.4
v 0 -0.8 2.4
v 0.2 -0.8 2.4
v -0.7 0.6 2.8
v -0.3 0.6 2.8
v 0.1 0.6 2.8
v 0.5 0.6 2.8
v -0.7 0.6 2.7
v -0.3 0.6 2.7
v 0.1 0.6 2.7
v 0.5 0.6 2.7
v -0.9 0.9 2.9
v 0.7 0.9 2.9
v -0.7 0.9 2.8
v -0.4 0.9 2.8
v -0.1 0.9 2.8
v 0.5 0.9 2.8
v -0.7 0.9 2.7
v -0.4 0.9 2.7
v -0.1 0.9 2.7
v 0.5 0.9 2.7
v -0.9 0.9 2.6
v 0.7 0.9 2.6
v -0.4 -1.19209e-007 2.9
v 0.2 -1.19209e-007 2.9
v -0.3 -1.19209e-007 2.8
v -0.1 -1.19209e-007 2.8
v 0.1 -1.19209e-007 2.8
v -0.3 -1.19209e-007 2.7
v -0.2 -1.19209e-007 2.7
v 0 -1.19209e-007 2.7
v 0.1 -1.19209e-007 2.7
v -0.2 -1.19209e-007 2.6
v -0.2 -1.19209e-007 2.5
v 0 -1.19209e-007 2.5
v -0.4 -1.19209e-007 2.4
v -0.2 -1.19209e-007 2.4
v 0 -1.19209e-007 2.4
v 0.2 -1.19209e-007 2.4
v -0.2 0.2 2.7
v -0.1 0.2 2.7
v 0 0.2 2.7
v -0.1 0.2 2.6
v 0 0.2 2.6
v -0.2 0.2 2.5
v -0.1 0.2 2.5
v 0 0.2 2.5
v -0.9 1.2 2.9
v -0.4 1.2 2.9
v 0.2 1.2 2.9
v 0.7 1.2 2.9
v -0.9 1.2 2.6
v -0.4 1.2 2.6
v 0.2 1.2 2.6
v 0.7 1.2 2.6
v -0.4 1.3 2.9
v 0.2 1.3 2.9
v -0.3 1.3 2.8
v 0.1 1.3 2.8
v -0.3 1.3 2.7
v 0.1 1.3 2.7
v -0.4 1.3 2.6
v 0.2 1.3 2.6
v -0.3 2.5 2.8
v -0.2 2.5 2.8
v 0 2.5 2.8
v 0.1 2.5 2.8
v -0.3 2.5 2.7
v -0.2 2.5 2.7
v 0 2.5 2.7
v 0.1 2.5 2.7
v -0.2 2.6 2.8
v 0 2.6 2.8
v -0.2 2.6 2.7
v 0 2.6 2.7

# faces
f 3/3/1 2/3/1 1/3/1
f 4/3/1 2/3/1 3/3/1
f 5/5/1 4/5/1 3/5/1
f 6/5/1 4/5/1 5/5/1
f 9/10/1 8/10/1 7/10/1
f 10/10/1 8/10/1 9/10/1
f 13/4/1 12/4/1 11/4/1
f 14/4/1 12/4/1 13/4/1
f 17/6/1 16/6/1 15/6/1
f 18/6/1 16/6/1 17/6/1
f 21/10/1 20/10/1 19/10/1
f 22/10/1 20/10/1 21/10/1
f 25/1/1 24/1/1 23/1/1
f 26/1/1 24/1/1 25/1/1
f 27/6/1 26/6/1 25/6/1
f 28/6/1 26/6/1 27/6/1
f 29/5/1 28/5/1 27/5/1
f 30/5/1 28/5/1 29/5/1
f 31/6/1 30/6/1 29/6/1
f 32/6/1 30/6/1 31/6/1
f 33/5/1 32/5/1 31/5/1
f 34/5/1 32/5/1 33/5/1
f 35/6/1 34/6/1 33/6/1
f 36/6/1 34/6/1 35/6/1
f 37/5/1 36/5/1 35/5/1
f 38/5/1 36/5/1 37/5/1
f 39/6/1 38/6/1 37/6/1
f 40/6/1 38/6/1 39/6/1
f 41/5/1 40/5/1 39/5/1
f 42/5/1 40/5/1 41/5/1
f 43/3/1 42/3/1 41/3/1
f 44/3/1 42/3/1 43/3/1
f 47/1/1 46/1/1 45/1/1
f 48/1/1 46/1/1 47/1/1
f 49/4/1 48/4/1 47/4/1
f 50/1/1 46/1/1 48/1/1
f 50/4/1 48/4/1 49/4/1
f 51/1/1 46/1/1 50/1/1
f 55/4/1 53/4/1 52/4/1
f 56/1/1 54/1/1 53/1/1
f 56/4/1 53/4/1 55/4/1
f 57/1/1 56/1/1 55/1/1
f 58/1/1 54/1/1 56/1/1
f 58/1/1 56/1/1 57/1/1
f 61/3/1 60/3/1 59/3/1
f 62/3/1 60/3/1 61/3/1
f 65/4/1 64/4/1 63/4/1
f 66/4/1 64/4/1 65/4/1
f 67/4/1 64/4/1 66/4/1
f 68/4/1 64/4/1 67/4/1
f 69/4/1 64/4/1 68/4/1
f 70/4/1 64/4/1 69/4/1
f 71/4/1 64/4/1 70/4/1
f 72/4/1 64/4/1 71/4/1
f 73/4/2 74/4/2 75/4/2
f 75/4/2 74/4/2 76/4/2
f 76/4/2 74/4/2 77/4/2
f 77/4/2 74/4/2 78/4/2
f 78/4/2 74/4/2 79/4/2
f 79/4/2 74/4/2 80/4/2
f 80/4/2 74/4/2 81/4/2
f 81/4/2 74/4/2 82/4/2
f 83/1/2 84/1/2 85/1/2
f 85/1/2 84/1/2 86/1/2
f 85/4/2 86/4/2 87/4/2
f 86/1/2 84/1/2 88/1/2
f 87/4/2 86/4/2 88/4/2
f 88/1/2 84/1/2 89/1/2
f 90/1/2 91/1/2 92/1/2
f 92/1/2 91/1/2 93/1/2
f 90/1/2 92/1/2 94/1/2
f 92/2/2 93/2/2 95/2/2
f 94/1/2 92/1/2 95/1/2
f 95/2/2 93/2/2 96/2/2
f 97/3/2 98/3/2 99/3/2
f 99/3/2 98/3/2 100/3/2
f 101/9/2 102/9/2 103/9/2
f 103/9/2 102/9/2 104/9/2
f 105/1/2 106/1/2 107/1/2
f 107/1/2 106/1/2 108/1/2
f 107/6/2 108/6/2 109/6/2
f 109/6/2 108/6/2 110/6/2
f 109/5/2 110/5/2 111/5/2
f 111/5/2 110/5/2 112/5/2
f 111/6/2 112/6/2 113/6/2
f 113/6/2 112/6/2 114/6/2
f 113/5/2 114/5/2 115/5/2
f 115/5/2 114/5/2 116/5/2
f 115/6/2 116/6/2 117/6/2
f 117/6/2 116/6/2 118/6/2
f 117/5/2 118/5/2 119/5/2
f 119/5/2 118/5/2 120/5/2
f 119/6/2 120/6/2 121/6/2
f 121/6/2 120/6/2 122/6/2
f 121/5/2 122/5/2 123/5/2
f 123/5/2 122/5/2 124/5/2
f 123/3/2 124/3/2 125/3/2
f 125/3/2 124/3/2 126/3/2
f 127/4/2 128/4/2 129/4/2
f 129/4/2 128/4/2 130/4/2
f 131/6/2 132/6/2 133/6/2
f 133/6/2 132/6/2 134/6/2
f 135/9/2 136/9/2 137/9/2
f 137/9/2 136/9/2 138/9/2
f 139/3/2 140/3/2 141/3/2
f 141/3/2 140/3/2 142/3/2
f 141/5/2 142/5/2 143/5/2
f 143/5/2 142/5/2 144/5/2
f 150/5/3 147/5/3 146/5/3
f 152/4/3 149/4/3 148/4/3
f 153/4/3 149/4/3 152/4/3
f 154/6/3 151/6/3 150/6/3
f 154/5/3 150/5/3 146/5/3
f 155/6/3 151/6/3 154/6/3
f 156/3/3 146/3/3 145/3/3
f 157/5/3 154/5/3 146/5/3
f 157/3/3 146/3/3 156/3/3
f 158/5/3 154/5/3 157/5/3
f 161/10/3 160/10/3 159/10/3
f 162/10/3 160/10/3 161/10/3
f 164/10/3 161/10/3 159/10/3
f 165/10/3 161/10/3 164/10/3
f 166/8/3 162/8/3 161/8/3
f 166/10/3 161/10/3 165/10/3
f 178/10/3 165/10/3 164/10/3
f 178/10/3 164/10/3 163/10/3
f 179/8/3 166/8/3 165/8/3
f 179/10/3 165/10/3 178/10/3
f 180/3/3 177/3/3 176/3/3
f 182/10/3 178/10/3 163/10/3
f 183/8/3 179/8/3 178/8/3
f 183/10/3 178/10/3 182/10/3
f 184/8/3 162/8/3 166/8/3
f 184/8/3 179/8/3 183/8/3
f 184/8/3 166/8/3 179/8/3
f 185/3/3 180/3/3 176/3/3
f 185/3/3 181/3/3 180/3/3
f 186/3/3 181/3/3 185/3/3
f 187/9/3 183/9/3 182/9/3
f 187/9/3 184/9/3 183/9/3
f 188/9/3 184/9/3 187/9/3
f 189/1/3 168/1/3 167/1/3
f 190/6/3 169/6/3 168/6/3
f 190/1/3 168/1/3 189/1/3
f 191/5/3 170/5/3 169/5/3
f 191/6/3 169/6/3 190/6/3
f 192/6/3 171/6/3 170/6/3
f 192/5/3 170/5/3 191/5/3
f 193/5/3 172/5/3 171/5/3
f 193/6/3 171/6/3 192/6/3
f 194/6/3 173/6/3 172/6/3
f 194/5/3 172/5/3 193/5/3
f 195/5/3 174/5/3 173/5/3
f 195/6/3 173/6/3 194/6/3
f 196/6/3 175/6/3 174/6/3
f 196/5/3 174/5/3 195/5/3
f 197/5/3 176/5/3 175/5/3
f 197/6/3 175/6/3 196/6/3
f 198/3/3 185/3/3 176/3/3
f 198/5/3 176/5/3 197/5/3
f 199/3/3 185/3/3 198/3/3
f 200/9/3 184/9/3 188/9/3
f 201/9/3 184/9/3 200/9/3
f 205/1/3 203/1/3 202/1/3
f 206/4/3 204/4/3 203/4/3
f 206/1/3 203/1/3 205/1/3
f 207/4/3 204/4/3 206/4/3
f 208/10/4 209/10/4 210/10/4
f 210/10/4 209/10/4 211/10/4
f 208/10/4 210/10/4 213/10/4
f 213/10/4 210/10/4 214/10/4
f 210/8/4 211/8/4 215/8/4
f 214/10/4 210/10/4 215/10/4
f 213/10/4 214/10/4 227/10/4
f 212/10/4 213/10/4 227/10/4
f 227/10/4 214/10/4 228/10/4
f 228/10/4 214/10/4 229/10/4
f 229/10/4 214/10/4 230/10/4
f 214/8/4 215/8/4 231/8/4
f 230/10/4 214/10/4 231/10/4
f 225/3/4 226/3/4 232/3/4
f 229/10/4 230/10/4 234/10/4
f 230/8/4 231/8/4 235/8/4
f 234/10/4 230/10/4 235/10/4
f 215/8/4 211/8/4 236/8/4
f 235/8/4 231/8/4 236/8/4
f 231/8/4 215/8/4 236/8/4
f 234/9/4 235/9/4 238/9/4
f 235/9/4 236/9/4 238/9/4
f 232/3/4 233/3/4 239/3/4
f 225/3/4 232/3/4 239/3/4
f 239/3/4 233/3/4 240/3/4
f 237/9/4 238/9/4 241/9/4
f 238/9/4 236/9/4 242/9/4
f 241/9/4 238/9/4 242/9/4
f 216/1/4 217/1/4 243/1/4
f 217/6/4 218/6/4 244/6/4
f 243/1/4 217/1/4 244/1/4
f 218/5/4 219/5/4 245/5/4
f 244/6/4 218/6/4 245/6/4
f 219/6/4 220/6/4 246/6/4
f 245/5/4 219/5/4 246/5/4
f 220/5/4 221/5/4 247/5/4
f 246/6/4 220/6/4 247/6/4
f 221/6/4 222/6/4 248/6/4
f 247/5/4 221/5/4 248/5/4
f 222/5/4 223/5/4 249/5/4
f 248/6/4 222/6/4 249/6/4
f 223/6/4 224/6/4 250/6/4
f 249/5/4 223/5/4 250/5/4
f 224/5/4 225/5/4 251/5/4
f 250/6/4 224/6/4 251/6/4
f 225/3/4 239/3/4 252/3/4
f 251/5/4 225/5/4 252/5/4
f 252/3/4 239/3/4 253/3/4
f 242/9/4 236/9/4 254/9/4
f 254/9/4 236/9/4 255/9/4
f 257/5/4 258/5/4 259/5/4
f 257/5/4 259/5/4 261/5/4
f 259/6/4 260/6/4 261/6/4
f 261/6/4 260/6/4 262/6/4
f 256/3/4 257/3/4 263/3/4
f 257/5/4 261/5/4 264/5/4
f 263/3/4 257/3/4 264/3/4
f 264/5/4 261/5/4 265/5/4
f 266/1/4 267/1/4 276/1/4
f 267/1/4 268/1/4 276/1/4
f 268/7/4 269/7/4 277/7/4
f 276/1/4 268/1/4 277/1/4
f 269/1/4 270/1/4 278/1/4
f 277/7/4 269/7/4 278/7/4
f 270/7/4 271/7/4 279/7/4
f 278/1/4 270/1/4 279/1/4
f 271/1/4 272/1/4 280/1/4
f 279/7/4 271/7/4 280/7/4
f 272/7/4 273/7/4 281/7/4
f 280/1/4 272/1/4 281/1/4
f 274/1/4 275/1/4 282/1/4
f 281/7/4 273/7/4 282/7/4
f 273/1/4 274/1/4 282/1/4
f 282/1/4 275/1/4 283/1/4
f 283/1/4 275/1/4 284/1/4
f 266/1/4 276/1/4 285/1/4
f 285/1/4 276/1/4 286/1/4
f 276/7/4 277/7/4 287/7/4
f 286/1/4 276/1/4 287/1/4
f 277/1/4 278/1/4 288/1/4
f 287/7/4 277/7/4 288/7/4
f 278/7/4 279/7/4 289/7/4
f 288/1/4 278/1/4 289/1/4
f 279/1/4 280/1/4 290/1/4
f 289/7/4 279/7/4 290/7/4
f 280/7/4 281/7/4 291/7/4
f 290/1/4 280/1/4 291/1/4
f 281/1/4 282/1/4 292/1/4
f 291/7/4 281/7/4 292/7/4
f 282/1/4 283/1/4 292/1/4
f 292/1/4 283/1/4 293/1/4
f 283/2/4 284/2/4 294/2/4
f 293/1/4 283/1/4 294/1/4
f 294/2/4 284/2/4 295/2/4
f 296/4/4 297/4/4 298/4/4
f 298/4/4 297/4/4 299/4/4
f 300/4/4 301/4/4 302/4/4
f 302/4/4 301/4/4 303/4/4
f 306/1/5 305/1/5 304/1/5
f 307/1/5 305/1/5 306/1/5
f 310/4/5 309/4/5 308/4/5
f 311/4/5 309/4/5 310/4/5
f 312/4/5 310/4/5 308/4/5
f 313/4/5 309/4/5 311/4/5
f 314/4/5 312/4/5 308/4/5
f 315/4/5 309/4/5 313/4/5
f 316/4/5 314/4/5 308/4/5
f 317/4/5 314/4/5 316/4/5
f 318/4/5 309/4/5 315/4/5
f 319/4/5 309/4/5 318/4/5
f 324/10/5 321/10/5 320/10/5
f 325/10/5 321/10/5 324/10/5
f 326/9/5 323/9/5 322/9/5
f 327/9/5 323/9/5 326/9/5
f 330/3/5 329/3/5 328/3/5
f 331/3/5 329/3/5 330/3/5
f 332/3/5 329/3/5 331/3/5
f 333/3/5 329/3/5 332/3/5
f 334/3/5 330/3/5 328/3/5
f 337/3/5 329/3/5 333/3/5
f 338/3/5 336/3/5 335/3/5
f 338/3/5 337/3/5 336/3/5
f 338/3/5 334/3/5 328/3/5
f 338/3/5 335/3/5 334/3/5
f 339/3/5 329/3/5 337/3/5
f 339/3/5 337/3/5 338/3/5
f 340/4/6 341/4/6 342/4/6
f 342/4/6 341/4/6 343/4/6
f 343/4/6 341/4/6 344/4/6
f 340/4/6 342/4/6 345/4/6
f 344/4/6 341/4/6 348/4/6
f 345/4/6 346/4/6 349/4/6
f 345/4/6 349/4/6 350/4/6
f 347/4/6 348/4/6 351/4/6
f 345/4/6 350/4/6 352/4/6
f 340/4/6 345/4/6 352/4/6
f 352/4/6 350/4/6 353/4/6
f 351/4/6 348/4/6 354/4/6
f 348/4/6 341/4/6 355/4/6
f 354/4/6 348/4/6 355/4/6
f 356/1/6 357/1/6 359/1/6
f 357/1/6 358/1/6 359/1/6
f 359/1/6 358/1/6 360/1/6
f 356/1/6 359/1/6 361/1/6
f 359/2/6 360/2/6 362/2/6
f 361/1/6 359/1/6 362/1/6
f 362/2/6 360/2/6 363/2/6
f 364/5/6 365/5/6 368/5/6
f 368/5/6 365/5/6 369/5/6
f 366/5/6 367/5/6 370/5/6
f 370/5/6 367/5/6 371/5/6
f 372/6/6 373/6/6 374/6/6
f 374/6/6 373/6/6 375/6/6
f 372/6/6 374/6/6 376/6/6
f 375/6/6 373/6/6 377/6/6
f 372/6/6 376/6/6 378/6/6
f 376/6/6 377/6/6 378/6/6
f 377/6/6 373/6/6 379/6/6
f 378/6/6 377/6/6 379/6/6
f 380/3/6 381/3/6 384/3/6
f 384/3/6 381/3/6 385/3/6
f 382/3/6 383/3/6 386/3/6
f 386/3/6 383/3/6 387/3/6
f 388/3/6 389/3/6 390/3/6
f 390/3/6 389/3/6 391/3/6
