# MagicaVoxel @ Ephtracy

# group
o 

# material
mtllib Säule.mtl
usemtl palette

# normals
vn -1 0 0
vn 1 0 0
vn 0 0 1
vn 0 0 -1
vn 0 -1 0
vn 0 1 0

# texcoords
vt 0.451172 0.5
vt 0.455078 0.5

# verts
v -9.7 -2 1.8
v -9.7 -2 -1
v -9.7 -1.8 1.8
v -9.7 -1.8 -1
v -9.7 15.8 1.8
v -9.7 15.8 -1
v -9.7 16.1 1.8
v -9.7 16.1 -1
v -9.4 -1.8 1.5
v -9.4 -1.8 -0.7
v -9.4 -1.7 1.5
v -9.4 -1.7 -0.6
v -9.4 -1.6 1.5
v -9.4 -1.6 1.4
v -9.4 15.8 1.5
v -9.4 15.8 1.4
v -9.4 15.8 -0.6
v -9.4 15.8 -0.7
v -9.4 16.1 1.5
v -9.4 16.1 -0.7
v -9.4 16.2 1.5
v -9.4 16.2 -0.7
v -9.4 16.3 1.5
v -9.4 16.3 -0.7
v -7.1 -1.8 1.5
v -7.1 -1.8 -0.7
v -7.1 -1.7 1.4
v -7.1 -1.7 -0.6
v -7.1 15.7 1.4
v -7.1 15.7 -0.6
v -7.1 15.8 1.5
v -7.1 15.8 -0.7
v -7.1 16.1 1.5
v -7.1 16.1 -0.7
v -7.1 16.2 1.5
v -7.1 16.2 -0.7
v -7.1 16.3 1.5
v -7.1 16.3 -0.7
v -6.8 -2 1.8
v -6.8 -2 -1
v -6.8 -1.8 1.8
v -6.8 -1.8 -1
v -6.8 15.8 1.8
v -6.8 15.8 -1
v -6.8 16.1 1.8
v -6.8 16.1 -1
v -9.7 -2 1.8
v -9.7 -1.8 1.8
v -9.7 15.8 1.8
v -9.7 16.1 1.8
v -6.8 -2 1.8
v -6.8 -1.8 1.8
v -6.8 15.8 1.8
v -6.8 16.1 1.8
v -9.4 -1.8 1.5
v -9.4 -1.7 1.5
v -9.4 -1.6 1.5
v -9.4 15.8 1.5
v -9.4 16.1 1.5
v -9.4 16.2 1.5
v -9.4 16.3 1.5
v -9.3 -1.6 1.5
v -9.3 15.7 1.5
v -7.2 -1.7 1.5
v -7.2 15.7 1.5
v -7.1 -1.8 1.5
v -7.1 15.8 1.5
v -7.1 16.1 1.5
v -7.1 16.2 1.5
v -7.1 16.3 1.5
v -9.4 -1.8 -0.7
v -9.4 15.8 -0.7
v -9.4 16.1 -0.7
v -9.4 16.2 -0.7
v -9.4 16.3 -0.7
v -9.3 -1.7 -0.7
v -9.3 15.8 -0.7
v -7.2 -1.7 -0.7
v -7.2 15.8 -0.7
v -7.1 -1.8 -0.7
v -7.1 15.8 -0.7
v -7.1 16.1 -0.7
v -7.1 16.2 -0.7
v -7.1 16.3 -0.7
v -9.7 -2 -1
v -9.7 -1.8 -1
v -9.7 15.8 -1
v -9.7 16.1 -1
v -6.8 -2 -1
v -6.8 -1.8 -1
v -6.8 15.8 -1
v -6.8 16.1 -1
v -9.7 -2 1.8
v -6.8 -2 1.8
v -9.6 -2 1.7
v -6.9 -2 1.7
v -9.6 -2 -0.9
v -6.9 -2 -0.9
v -9.7 -2 -1
v -6.8 -2 -1
v -9.7 15.8 1.8
v -6.8 15.8 1.8
v -9.6 15.8 1.7
v -6.9 15.8 1.7
v -9.4 15.8 1.5
v -7.1 15.8 1.5
v -9.4 15.8 1.4
v -9.4 15.8 -0.6
v -9.4 15.8 -0.7
v -9.3 15.8 -0.7
v -7.2 15.8 -0.7
v -7.1 15.8 -0.7
v -9.6 15.8 -0.9
v -6.9 15.8 -0.9
v -9.7 15.8 -1
v -6.8 15.8 -1
v -9.7 -1.8 1.8
v -6.8 -1.8 1.8
v -9.6 -1.8 1.7
v -6.9 -1.8 1.7
v -9.4 -1.8 1.5
v -7.1 -1.8 1.5
v -9.4 -1.8 -0.7
v -7.1 -1.8 -0.7
v -9.6 -1.8 -0.9
v -6.9 -1.8 -0.9
v -9.7 -1.8 -1
v -6.8 -1.8 -1
v -9.7 16.1 1.8
v -6.8 16.1 1.8
v -9.6 16.1 1.7
v -6.9 16.1 1.7
v -9.4 16.1 1.5
v -7.1 16.1 1.5
v -9.4 16.1 -0.7
v -7.1 16.1 -0.7
v -9.6 16.1 -0.9
v -6.9 16.1 -0.9
v -9.7 16.1 -1
v -6.8 16.1 -1
v -9.4 16.3 1.5
v -7.1 16.3 1.5
v -9.4 16.3 -0.7
v -7.1 16.3 -0.7

# faces
f 3/2/1 2/2/1 1/2/1
f 4/2/1 2/2/1 3/2/1
f 7/2/1 6/2/1 5/2/1
f 8/2/1 6/2/1 7/2/1
f 11/2/1 10/2/1 9/2/1
f 12/2/1 10/2/1 11/2/1
f 13/1/1 12/1/1 11/1/1
f 14/1/1 12/1/1 13/1/1
f 15/2/1 14/2/1 13/2/1
f 16/1/1 12/1/1 14/1/1
f 16/2/1 14/2/1 15/2/1
f 17/2/1 10/2/1 12/2/1
f 17/1/1 12/1/1 16/1/1
f 18/2/1 10/2/1 17/2/1
f 21/1/1 20/1/1 19/1/1
f 22/1/1 20/1/1 21/1/1
f 23/2/1 22/2/1 21/2/1
f 24/2/1 22/2/1 23/2/1
f 25/2/2 26/2/2 27/2/2
f 27/2/2 26/2/2 28/2/2
f 25/2/2 27/2/2 29/2/2
f 27/1/2 28/1/2 29/1/2
f 28/2/2 26/2/2 30/2/2
f 29/1/2 28/1/2 30/1/2
f 25/2/2 29/2/2 31/2/2
f 29/2/2 30/2/2 31/2/2
f 30/2/2 26/2/2 32/2/2
f 31/2/2 30/2/2 32/2/2
f 33/1/2 34/1/2 35/1/2
f 35/1/2 34/1/2 36/1/2
f 35/2/2 36/2/2 37/2/2
f 37/2/2 36/2/2 38/2/2
f 39/2/2 40/2/2 41/2/2
f 41/2/2 40/2/2 42/2/2
f 43/2/2 44/2/2 45/2/2
f 45/2/2 44/2/2 46/2/2
f 51/2/3 48/2/3 47/2/3
f 52/2/3 48/2/3 51/2/3
f 53/2/3 50/2/3 49/2/3
f 54/2/3 50/2/3 53/2/3
f 62/1/3 57/1/3 56/1/3
f 62/2/3 58/2/3 57/2/3
f 63/2/3 58/2/3 62/2/3
f 64/2/3 56/2/3 55/2/3
f 64/1/3 62/1/3 56/1/3
f 64/1/3 63/1/3 62/1/3
f 65/2/3 58/2/3 63/2/3
f 65/1/3 63/1/3 64/1/3
f 66/2/3 64/2/3 55/2/3
f 66/2/3 65/2/3 64/2/3
f 67/2/3 58/2/3 65/2/3
f 67/2/3 65/2/3 66/2/3
f 68/1/3 60/1/3 59/1/3
f 69/2/3 61/2/3 60/2/3
f 69/1/3 60/1/3 68/1/3
f 70/2/3 61/2/3 69/2/3
f 71/2/4 72/2/4 76/2/4
f 76/2/4 72/2/4 77/2/4
f 71/2/4 76/2/4 78/2/4
f 76/1/4 77/1/4 78/1/4
f 78/1/4 77/1/4 79/1/4
f 71/2/4 78/2/4 80/2/4
f 78/2/4 79/2/4 80/2/4
f 80/2/4 79/2/4 81/2/4
f 73/1/4 74/1/4 82/1/4
f 74/2/4 75/2/4 83/2/4
f 82/1/4 74/1/4 83/1/4
f 83/2/4 75/2/4 84/2/4
f 85/2/4 86/2/4 89/2/4
f 89/2/4 86/2/4 90/2/4
f 87/2/4 88/2/4 91/2/4
f 91/2/4 88/2/4 92/2/4
f 95/2/5 94/2/5 93/2/5
f 96/2/5 94/2/5 95/2/5
f 97/2/5 95/2/5 93/2/5
f 97/1/5 96/1/5 95/1/5
f 98/2/5 94/2/5 96/2/5
f 98/1/5 96/1/5 97/1/5
f 99/2/5 97/2/5 93/2/5
f 99/2/5 98/2/5 97/2/5
f 100/2/5 94/2/5 98/2/5
f 100/2/5 98/2/5 99/2/5
f 103/2/5 102/2/5 101/2/5
f 104/2/5 102/2/5 103/2/5
f 105/1/5 104/1/5 103/1/5
f 106/1/5 104/1/5 105/1/5
f 107/1/5 105/1/5 103/1/5
f 108/1/5 107/1/5 103/1/5
f 109/1/5 108/1/5 103/1/5
f 112/1/5 104/1/5 106/1/5
f 113/2/5 103/2/5 101/2/5
f 113/1/5 112/1/5 111/1/5
f 113/1/5 111/1/5 110/1/5
f 113/1/5 109/1/5 103/1/5
f 113/1/5 110/1/5 109/1/5
f 114/1/5 104/1/5 112/1/5
f 114/1/5 112/1/5 113/1/5
f 114/2/5 102/2/5 104/2/5
f 115/2/5 113/2/5 101/2/5
f 115/2/5 114/2/5 113/2/5
f 116/2/5 102/2/5 114/2/5
f 116/2/5 114/2/5 115/2/5
f 117/2/6 118/2/6 119/2/6
f 119/2/6 118/2/6 120/2/6
f 119/1/6 120/1/6 121/1/6
f 121/1/6 120/1/6 122/1/6
f 119/1/6 121/1/6 123/1/6
f 122/1/6 120/1/6 124/1/6
f 117/2/6 119/2/6 125/2/6
f 123/1/6 124/1/6 125/1/6
f 119/1/6 123/1/6 125/1/6
f 124/1/6 120/1/6 126/1/6
f 125/1/6 124/1/6 126/1/6
f 120/2/6 118/2/6 126/2/6
f 117/2/6 125/2/6 127/2/6
f 125/2/6 126/2/6 127/2/6
f 126/2/6 118/2/6 128/2/6
f 127/2/6 126/2/6 128/2/6
f 129/2/6 130/2/6 131/2/6
f 131/2/6 130/2/6 132/2/6
f 131/1/6 132/1/6 133/1/6
f 133/1/6 132/1/6 134/1/6
f 131/1/6 133/1/6 135/1/6
f 134/1/6 132/1/6 136/1/6
f 129/2/6 131/2/6 137/2/6
f 135/1/6 136/1/6 137/1/6
f 131/1/6 135/1/6 137/1/6
f 136/1/6 132/1/6 138/1/6
f 137/1/6 136/1/6 138/1/6
f 132/2/6 130/2/6 138/2/6
f 129/2/6 137/2/6 139/2/6
f 137/2/6 138/2/6 139/2/6
f 138/2/6 130/2/6 140/2/6
f 139/2/6 138/2/6 140/2/6
f 141/2/6 142/2/6 143/2/6
f 143/2/6 142/2/6 144/2/6
