# MagicaVoxel @ Ephtracy

# group
o 

# material
mtllib Sword.mtl
usemtl palette

# normals
vn -1 0 0
vn 1 0 0
vn 0 0 1
vn 0 0 -1
vn 0 -1 0
vn 0 1 0

# texcoords
vt 0.396484 0.5
vt 0.494141 0.5
vt 0.677734 0.5
vt 0.681641 0.5
vt 0.732422 0.5
vt 0.736328 0.5
vt 0.740234 0.5
vt 0.912109 0.5

# verts
v -0.6 0.9 2.9
v -0.6 0.9 2.7
v -0.6 0.9 2.6
v -0.6 1 2.9
v -0.6 1 2.7
v -0.6 1 2.6
v -0.6 1.2 2.9
v -0.6 1.2 2.6
v -0.4 0.6 2.8
v -0.4 0.6 2.7
v -0.4 0.9 2.8
v -0.4 0.9 2.7
v -0.2 1.2 2.9
v -0.2 1.2 2.7
v -0.2 1.2 2.6
v -0.2 1.3 2.9
v -0.2 1.3 2.7
v -0.2 1.3 2.6
v -5.96046e-008 -1.6 2.8
v -5.96046e-008 -1.6 2.7
v -5.96046e-008 0.3 2.8
v -5.96046e-008 0.3 2.7
v -5.96046e-008 0.6 2.8
v -5.96046e-008 0.6 2.7
v -5.96046e-008 1.3 2.8
v -5.96046e-008 1.3 2.7
v -5.96046e-008 1.5 2.8
v -5.96046e-008 1.5 2.7
v -5.96046e-008 1.6 2.8
v -5.96046e-008 1.6 2.7
v -5.96046e-008 1.7 2.8
v -5.96046e-008 1.7 2.7
v -5.96046e-008 2.4 2.8
v -5.96046e-008 2.4 2.7
v -5.96046e-008 2.5 2.8
v -5.96046e-008 2.5 2.7
v 0.1 -1.9 2.8
v 0.1 -1.9 2.7
v 0.1 -1.6 2.8
v 0.1 -1.6 2.7
v 0.1 2.5 2.8
v 0.1 2.5 2.7
v 0.1 2.6 2.8
v 0.1 2.6 2.7
v 0.3 -1.9 2.8
v 0.3 -1.9 2.7
v 0.3 -1.6 2.8
v 0.3 -1.6 2.7
v 0.3 2.5 2.8
v 0.3 2.5 2.7
v 0.3 2.6 2.8
v 0.3 2.6 2.7
v 0.4 -1.6 2.8
v 0.4 -1.6 2.7
v 0.4 0.6 2.8
v 0.4 0.6 2.7
v 0.4 1.3 2.8
v 0.4 1.3 2.7
v 0.4 1.5 2.8
v 0.4 1.5 2.7
v 0.4 1.6 2.8
v 0.4 1.6 2.7
v 0.4 1.7 2.8
v 0.4 1.7 2.7
v 0.4 2.4 2.8
v 0.4 2.4 2.7
v 0.4 2.5 2.8
v 0.4 2.5 2.7
v 0.5 1.2 2.9
v 0.5 1.2 2.7
v 0.5 1.2 2.6
v 0.5 1.3 2.9
v 0.5 1.3 2.7
v 0.5 1.3 2.6
v 0.8 0.6 2.8
v 0.8 0.6 2.7
v 0.8 0.9 2.8
v 0.8 0.9 2.7
v 1 0.9 2.9
v 1 0.9 2.7
v 1 0.9 2.6
v 1 1 2.9
v 1 1 2.7
v 1 1 2.6
v 1 1.2 2.9
v 1 1.2 2.6
v -0.6 0.9 2.9
v -0.6 1 2.9
v -0.6 1.2 2.9
v -0.2 1.2 2.9
v -0.2 1.3 2.9
v 0.5 1.2 2.9
v 0.5 1.3 2.9
v 1 0.9 2.9
v 1 1 2.9
v 1 1.2 2.9
v -0.4 0.6 2.8
v -0.4 0.9 2.8
v -0.1 0.8 2.8
v -0.1 0.9 2.8
v -5.96046e-008 -1.6 2.8
v -5.96046e-008 0.3 2.8
v -5.96046e-008 0.6 2.8
v -5.96046e-008 0.7 2.8
v -5.96046e-008 0.8 2.8
v -5.96046e-008 1.3 2.8
v -5.96046e-008 1.5 2.8
v -5.96046e-008 1.6 2.8
v -5.96046e-008 1.7 2.8
v -5.96046e-008 2.4 2.8
v -5.96046e-008 2.5 2.8
v 0.1 -1.9 2.8
v 0.1 -1.6 2.8
v 0.1 0.2 2.8
v 0.1 0.3 2.8
v 0.1 0.6 2.8
v 0.1 0.7 2.8
v 0.1 2.5 2.8
v 0.1 2.6 2.8
v 0.2 -1.9 2.8
v 0.2 0.2 2.8
v 0.2 0.6 2.8
v 0.2 0.9 2.8
v 0.3 -1.9 2.8
v 0.3 -1.6 2.8
v 0.3 2.5 2.8
v 0.3 2.6 2.8
v 0.4 -1.6 2.8
v 0.4 0.6 2.8
v 0.4 1.3 2.8
v 0.4 1.5 2.8
v 0.4 1.6 2.8
v 0.4 1.7 2.8
v 0.4 2.4 2.8
v 0.4 2.5 2.8
v 0.8 0.6 2.8
v 0.8 0.9 2.8
v -0.4 0.6 2.7
v -0.4 0.9 2.7
v -0.1 0.8 2.7
v -0.1 0.9 2.7
v -5.96046e-008 -1.6 2.7
v -5.96046e-008 0.3 2.7
v -5.96046e-008 0.6 2.7
v -5.96046e-008 0.7 2.7
v -5.96046e-008 0.8 2.7
v -5.96046e-008 1.3 2.7
v -5.96046e-008 1.5 2.7
v -5.96046e-008 1.6 2.7
v -5.96046e-008 1.7 2.7
v -5.96046e-008 2.4 2.7
v -5.96046e-008 2.5 2.7
v 0.1 -1.9 2.7
v 0.1 -1.6 2.7
v 0.1 0.2 2.7
v 0.1 0.3 2.7
v 0.1 0.6 2.7
v 0.1 0.7 2.7
v 0.1 2.5 2.7
v 0.1 2.6 2.7
v 0.2 -1.9 2.7
v 0.2 0.2 2.7
v 0.2 0.6 2.7
v 0.2 0.9 2.7
v 0.3 -1.9 2.7
v 0.3 -1.6 2.7
v 0.3 2.5 2.7
v 0.3 2.6 2.7
v 0.4 -1.6 2.7
v 0.4 0.6 2.7
v 0.4 1.3 2.7
v 0.4 1.5 2.7
v 0.4 1.6 2.7
v 0.4 1.7 2.7
v 0.4 2.4 2.7
v 0.4 2.5 2.7
v 0.8 0.6 2.7
v 0.8 0.9 2.7
v -0.6 0.9 2.6
v -0.6 1 2.6
v -0.6 1.2 2.6
v -0.2 1.2 2.6
v -0.2 1.3 2.6
v 0.5 1.2 2.6
v 0.5 1.3 2.6
v 1 0.9 2.6
v 1 1 2.6
v 1 1.2 2.6
v 0.1 -1.9 2.8
v 0.2 -1.9 2.8
v 0.3 -1.9 2.8
v 0.1 -1.9 2.7
v 0.2 -1.9 2.7
v 0.3 -1.9 2.7
v -5.96046e-008 -1.6 2.8
v 0.1 -1.6 2.8
v 0.3 -1.6 2.8
v 0.4 -1.6 2.8
v -5.96046e-008 -1.6 2.7
v 0.1 -1.6 2.7
v 0.3 -1.6 2.7
v 0.4 -1.6 2.7
v -0.4 0.6 2.8
v -5.96046e-008 0.6 2.8
v 0.4 0.6 2.8
v 0.8 0.6 2.8
v -0.4 0.6 2.7
v -5.96046e-008 0.6 2.7
v 0.4 0.6 2.7
v 0.8 0.6 2.7
v -0.6 0.9 2.9
v 1 0.9 2.9
v -0.4 0.9 2.8
v -0.1 0.9 2.8
v 0.2 0.9 2.8
v 0.8 0.9 2.8
v -0.6 0.9 2.7
v -0.4 0.9 2.7
v -0.1 0.9 2.7
v 0.2 0.9 2.7
v 0.8 0.9 2.7
v 1 0.9 2.7
v -0.6 0.9 2.6
v 1 0.9 2.6
v -0.6 1.2 2.9
v -0.2 1.2 2.9
v 0.5 1.2 2.9
v 1 1.2 2.9
v -0.2 1.2 2.7
v 0.5 1.2 2.7
v -0.6 1.2 2.6
v -0.2 1.2 2.6
v 0.5 1.2 2.6
v 1 1.2 2.6
v -0.2 1.3 2.9
v 0.5 1.3 2.9
v -5.96046e-008 1.3 2.8
v 0.4 1.3 2.8
v -0.2 1.3 2.7
v -5.96046e-008 1.3 2.7
v 0.4 1.3 2.7
v 0.5 1.3 2.7
v -0.2 1.3 2.6
v 0.5 1.3 2.6
v -5.96046e-008 2.5 2.8
v 0.1 2.5 2.8
v 0.3 2.5 2.8
v 0.4 2.5 2.8
v -5.96046e-008 2.5 2.7
v 0.1 2.5 2.7
v 0.3 2.5 2.7
v 0.4 2.5 2.7
v 0.1 2.6 2.8
v 0.3 2.6 2.8
v 0.1 2.6 2.7
v 0.3 2.6 2.7

# faces
f 4/5/1 2/5/1 1/5/1
f 5/7/1 3/7/1 2/7/1
f 5/5/1 2/5/1 4/5/1
f 6/7/1 3/7/1 5/7/1
f 7/6/1 5/6/1 4/6/1
f 7/6/1 6/6/1 5/6/1
f 8/6/1 6/6/1 7/6/1
f 11/8/1 10/8/1 9/8/1
f 12/8/1 10/8/1 11/8/1
f 16/5/1 14/5/1 13/5/1
f 17/7/1 15/7/1 14/7/1
f 17/5/1 14/5/1 16/5/1
f 18/7/1 15/7/1 17/7/1
f 21/3/1 20/3/1 19/3/1
f 22/3/1 20/3/1 21/3/1
f 23/8/1 22/8/1 21/8/1
f 24/8/1 22/8/1 23/8/1
f 27/1/1 26/1/1 25/1/1
f 28/1/1 26/1/1 27/1/1
f 29/2/1 28/2/1 27/2/1
f 30/2/1 28/2/1 29/2/1
f 31/5/1 30/5/1 29/5/1
f 32/5/1 30/5/1 31/5/1
f 33/6/1 32/6/1 31/6/1
f 34/6/1 32/6/1 33/6/1
f 35/5/1 34/5/1 33/5/1
f 36/5/1 34/5/1 35/5/1
f 39/3/1 38/3/1 37/3/1
f 40/3/1 38/3/1 39/3/1
f 43/5/1 42/5/1 41/5/1
f 44/5/1 42/5/1 43/5/1
f 45/4/2 46/4/2 47/4/2
f 47/4/2 46/4/2 48/4/2
f 49/5/2 50/5/2 51/5/2
f 51/5/2 50/5/2 52/5/2
f 53/4/2 54/4/2 55/4/2
f 55/4/2 54/4/2 56/4/2
f 57/1/2 58/1/2 59/1/2
f 59/1/2 58/1/2 60/1/2
f 59/2/2 60/2/2 61/2/2
f 61/2/2 60/2/2 62/2/2
f 61/5/2 62/5/2 63/5/2
f 63/5/2 62/5/2 64/5/2
f 63/6/2 64/6/2 65/6/2
f 65/6/2 64/6/2 66/6/2
f 65/5/2 66/5/2 67/5/2
f 67/5/2 66/5/2 68/5/2
f 69/5/2 70/5/2 72/5/2
f 70/7/2 71/7/2 73/7/2
f 72/5/2 70/5/2 73/5/2
f 73/7/2 71/7/2 74/7/2
f 75/4/2 76/4/2 77/4/2
f 77/4/2 76/4/2 78/4/2
f 79/5/2 80/5/2 82/5/2
f 80/7/2 81/7/2 83/7/2
f 82/5/2 80/5/2 83/5/2
f 83/7/2 81/7/2 84/7/2
f 82/6/2 83/6/2 85/6/2
f 83/6/2 84/6/2 85/6/2
f 85/6/2 84/6/2 86/6/2
f 90/6/3 89/6/3 88/6/3
f 92/6/3 90/6/3 88/6/3
f 92/5/3 91/5/3 90/5/3
f 93/5/3 91/5/3 92/5/3
f 94/5/3 88/5/3 87/5/3
f 95/6/3 92/6/3 88/6/3
f 95/5/3 88/5/3 94/5/3
f 96/6/3 92/6/3 95/6/3
f 99/8/3 98/8/3 97/8/3
f 100/8/3 98/8/3 99/8/3
f 103/8/3 99/8/3 97/8/3
f 104/8/3 99/8/3 103/8/3
f 105/3/3 100/3/3 99/3/3
f 105/8/3 99/8/3 104/8/3
f 113/3/3 102/3/3 101/3/3
f 114/3/3 102/3/3 113/3/3
f 115/8/3 104/8/3 103/8/3
f 115/3/3 102/3/3 114/3/3
f 115/8/3 103/8/3 102/8/3
f 116/8/3 104/8/3 115/8/3
f 117/3/3 105/3/3 104/3/3
f 117/8/3 104/8/3 116/8/3
f 118/5/3 111/5/3 110/5/3
f 120/3/3 114/3/3 113/3/3
f 120/3/3 113/3/3 112/3/3
f 121/8/3 116/8/3 115/8/3
f 121/3/3 114/3/3 120/3/3
f 121/8/3 115/8/3 114/8/3
f 122/3/3 117/3/3 116/3/3
f 122/8/3 116/8/3 121/8/3
f 123/3/3 105/3/3 117/3/3
f 123/3/3 117/3/3 122/3/3
f 123/3/3 100/3/3 105/3/3
f 124/4/3 122/4/3 121/4/3
f 124/4/3 121/4/3 120/4/3
f 124/4/3 123/4/3 122/4/3
f 125/4/3 123/4/3 124/4/3
f 126/5/3 119/5/3 118/5/3
f 126/5/3 118/5/3 110/5/3
f 127/5/3 119/5/3 126/5/3
f 128/4/3 123/4/3 125/4/3
f 129/4/3 123/4/3 128/4/3
f 130/1/3 107/1/3 106/1/3
f 131/2/3 108/2/3 107/2/3
f 131/1/3 107/1/3 130/1/3
f 132/5/3 109/5/3 108/5/3
f 132/2/3 108/2/3 131/2/3
f 133/6/3 110/6/3 109/6/3
f 133/5/3 109/5/3 132/5/3
f 134/5/3 126/5/3 110/5/3
f 134/6/3 110/6/3 133/6/3
f 135/5/3 126/5/3 134/5/3
f 136/4/3 123/4/3 129/4/3
f 137/4/3 123/4/3 136/4/3
f 138/8/4 139/8/4 140/8/4
f 140/8/4 139/8/4 141/8/4
f 138/8/4 140/8/4 144/8/4
f 144/8/4 140/8/4 145/8/4
f 140/3/4 141/3/4 146/3/4
f 145/8/4 140/8/4 146/8/4
f 142/3/4 143/3/4 154/3/4
f 154/3/4 143/3/4 155/3/4
f 144/8/4 145/8/4 156/8/4
f 155/3/4 143/3/4 156/3/4
f 143/8/4 144/8/4 156/8/4
f 156/8/4 145/8/4 157/8/4
f 145/3/4 146/3/4 158/3/4
f 157/8/4 145/8/4 158/8/4
f 151/5/4 152/5/4 159/5/4
f 154/3/4 155/3/4 161/3/4
f 153/3/4 154/3/4 161/3/4
f 156/8/4 157/8/4 162/8/4
f 161/3/4 155/3/4 162/3/4
f 155/8/4 156/8/4 162/8/4
f 157/3/4 158/3/4 163/3/4
f 162/8/4 157/8/4 163/8/4
f 158/3/4 146/3/4 164/3/4
f 163/3/4 158/3/4 164/3/4
f 146/3/4 141/3/4 164/3/4
f 162/4/4 163/4/4 165/4/4
f 161/4/4 162/4/4 165/4/4
f 163/4/4 164/4/4 165/4/4
f 165/4/4 164/4/4 166/4/4
f 159/5/4 160/5/4 167/5/4
f 151/5/4 159/5/4 167/5/4
f 167/5/4 160/5/4 168/5/4
f 166/4/4 164/4/4 169/4/4
f 169/4/4 164/4/4 170/4/4
f 147/1/4 148/1/4 171/1/4
f 148/2/4 149/2/4 172/2/4
f 171/1/4 148/1/4 172/1/4
f 149/5/4 150/5/4 173/5/4
f 172/2/4 149/2/4 173/2/4
f 150/6/4 151/6/4 174/6/4
f 173/5/4 150/5/4 174/5/4
f 151/5/4 167/5/4 175/5/4
f 174/6/4 151/6/4 175/6/4
f 175/5/4 167/5/4 176/5/4
f 170/4/4 164/4/4 177/4/4
f 177/4/4 164/4/4 178/4/4
f 180/6/4 181/6/4 182/6/4
f 180/6/4 182/6/4 184/6/4
f 182/7/4 183/7/4 184/7/4
f 184/7/4 183/7/4 185/7/4
f 179/7/4 180/7/4 186/7/4
f 180/6/4 184/6/4 187/6/4
f 186/7/4 180/7/4 187/7/4
f 187/6/4 184/6/4 188/6/4
f 192/3/5 190/3/5 189/3/5
f 193/4/5 191/4/5 190/4/5
f 193/3/5 190/3/5 192/3/5
f 194/4/5 191/4/5 193/4/5
f 199/3/5 196/3/5 195/3/5
f 200/3/5 196/3/5 199/3/5
f 201/4/5 198/4/5 197/4/5
f 202/4/5 198/4/5 201/4/5
f 207/8/5 204/8/5 203/8/5
f 208/8/5 204/8/5 207/8/5
f 209/4/5 206/4/5 205/4/5
f 210/4/5 206/4/5 209/4/5
f 213/5/5 212/5/5 211/5/5
f 214/5/5 212/5/5 213/5/5
f 215/5/5 212/5/5 214/5/5
f 216/5/5 212/5/5 215/5/5
f 217/5/5 213/5/5 211/5/5
f 218/5/5 213/5/5 217/5/5
f 221/5/5 212/5/5 216/5/5
f 222/5/5 212/5/5 221/5/5
f 223/7/5 220/7/5 219/7/5
f 223/7/5 218/7/5 217/7/5
f 223/7/5 222/7/5 221/7/5
f 223/7/5 221/7/5 220/7/5
f 223/7/5 219/7/5 218/7/5
f 224/7/5 222/7/5 223/7/5
f 225/6/6 226/6/6 229/6/6
f 227/6/6 228/6/6 230/6/6
f 225/6/6 229/6/6 231/6/6
f 231/6/6 229/6/6 232/6/6
f 230/6/6 228/6/6 233/6/6
f 233/6/6 228/6/6 234/6/6
f 235/5/6 236/5/6 237/5/6
f 237/5/6 236/5/6 238/5/6
f 235/5/6 237/5/6 239/5/6
f 239/5/6 237/5/6 240/5/6
f 238/5/6 236/5/6 241/5/6
f 241/5/6 236/5/6 242/5/6
f 239/7/6 240/7/6 243/7/6
f 240/7/6 241/7/6 243/7/6
f 241/7/6 242/7/6 243/7/6
f 243/7/6 242/7/6 244/7/6
f 245/5/6 246/5/6 249/5/6
f 249/5/6 246/5/6 250/5/6
f 247/5/6 248/5/6 251/5/6
f 251/5/6 248/5/6 252/5/6
f 253/5/6 254/5/6 255/5/6
f 255/5/6 254/5/6 256/5/6
