# MagicaVoxel @ Ephtracy

# group
o 

# material
mtllib Zaun.mtl
usemtl palette

# normals
vn -1 0 0
vn 1 0 0
vn 0 0 1
vn 0 0 -1
vn 0 -1 0
vn 0 1 0

# texcoords
vt 0.302734 0.5
vt 0.306641 0.5

# verts
v -4.6 -2.1 2.4
v -4.6 -2.1 1.8
v -4.6 2.1 2.4
v -4.6 2.1 1.8
v -3.2 -2 2.4
v -3.2 -2 1.8
v -3.2 -0.0999999 2.4
v -3.2 -0.0999999 2.3
v -3.2 -0.0999999 2
v -3.2 -0.0999999 1.9
v -3.2 0.2 2.4
v -3.2 0.2 1.9
v -3.2 2.1 2.4
v -3.2 2.1 1.8
v -1.8 -2 2.4
v -1.8 -2 1.8
v -1.8 -0.0999999 2.4
v -1.8 -0.0999999 2.3
v -1.8 -0.0999999 2
v -1.8 -0.0999999 1.9
v -1.8 0.2 2.4
v -1.8 0.2 1.9
v -1.8 2.1 2.4
v -1.8 2.1 1.8
v -0.3 -2 2.4
v -0.3 -2 1.8
v -0.3 -0.0999999 2.4
v -0.3 -0.0999999 2.3
v -0.3 -0.0999999 2
v -0.3 -0.0999999 1.9
v -0.3 0.2 2.4
v -0.3 0.2 1.9
v -0.3 2.1 2.4
v -0.3 2.1 1.8
v 1.3 -2 2.4
v 1.3 -2 1.8
v 1.3 -0.0999999 2.4
v 1.3 -0.0999999 2.3
v 1.3 -0.0999999 2
v 1.3 -0.0999999 1.9
v 1.3 0.2 2.4
v 1.3 0.2 1.9
v 1.3 2.1 2.4
v 1.3 2.1 1.8
v 2.9 -2 2.4
v 2.9 -2 1.8
v 2.9 -0.0999999 2.4
v 2.9 -0.0999999 2.3
v 2.9 -0.0999999 2
v 2.9 -0.0999999 1.9
v 2.9 0.2 2.4
v 2.9 0.2 1.9
v 2.9 2.1 2.4
v 2.9 2.1 1.8
v -3.9 -2 2.4
v -3.9 -2 1.8
v -3.9 -0.0999999 2.4
v -3.9 -0.0999999 2.3
v -3.9 -0.0999999 2
v -3.9 -0.0999999 1.9
v -3.9 0.2 2.4
v -3.9 0.2 1.9
v -3.9 2.1 2.4
v -3.9 2.1 1.8
v -2.5 -2 2.4
v -2.5 -2 1.8
v -2.5 -0.0999999 2.4
v -2.5 -0.0999999 2.3
v -2.5 -0.0999999 2
v -2.5 -0.0999999 1.9
v -2.5 0.2 2.4
v -2.5 0.2 1.9
v -2.5 2.1 2.4
v -2.5 2.1 1.8
v -1 -2 2.4
v -1 -2 1.8
v -1 -0.0999999 2.4
v -1 -0.0999999 2.3
v -1 -0.0999999 2
v -1 -0.0999999 1.9
v -1 0.2 2.4
v -1 0.2 1.9
v -1 2.1 2.4
v -1 2.1 1.8
v 0.5 -2 2.4
v 0.5 -2 1.8
v 0.5 -0.0999999 2.4
v 0.5 -0.0999999 2.3
v 0.5 -0.0999999 2
v 0.5 -0.0999999 1.9
v 0.5 0.2 2.4
v 0.5 0.2 1.9
v 0.5 2.1 2.4
v 0.5 2.1 1.8
v 2.1 -2 2.4
v 2.1 -2 1.8
v 2.1 -0.0999999 2.4
v 2.1 -0.0999999 2.3
v 2.1 -0.0999999 2
v 2.1 -0.0999999 1.9
v 2.1 0.2 2.4
v 2.1 0.2 1.9
v 2.1 2.1 2.4
v 2.1 2.1 1.8
v 3.7 -2 2.4
v 3.7 -2 1.8
v 3.7 -0.0999999 2.4
v 3.7 -0.0999999 2.3
v 3.7 -0.0999999 2
v 3.7 -0.0999999 1.9
v 3.7 0.2 2.4
v 3.7 0.2 1.9
v 3.7 2.1 2.4
v 3.7 2.1 1.8
v 4.5 -2.1 2.4
v 4.5 -2.1 1.8
v 4.5 -2 2.4
v 4.5 -2 1.8
v 4.5 -0.0999999 2.4
v 4.5 -0.0999999 2.3
v 4.5 -0.0999999 2
v 4.5 -0.0999999 1.9
v 4.5 0.0999999 2.3
v 4.5 0.0999999 2
v 4.5 0.2 2.4
v 4.5 0.2 1.9
v -4.6 -2.1 2.4
v -4.6 2.1 2.4
v -3.9 -2.1 2.4
v -3.9 -2 2.4
v -3.9 -0.0999999 2.4
v -3.9 0.2 2.4
v -3.9 2.1 2.4
v -3.2 -2 2.4
v -3.2 -0.0999999 2.4
v -3.2 0.2 2.4
v -3.2 2.1 2.4
v -2.5 -2 2.4
v -2.5 -0.0999999 2.4
v -2.5 0.2 2.4
v -2.5 2.1 2.4
v -1.8 -2 2.4
v -1.8 -0.0999999 2.4
v -1.8 0.2 2.4
v -1.8 2.1 2.4
v -1 -2 2.4
v -1 -0.0999999 2.4
v -1 0.2 2.4
v -1 2.1 2.4
v -0.3 -2 2.4
v -0.3 -0.0999999 2.4
v -0.3 0.2 2.4
v -0.3 2.1 2.4
v 0.5 -2 2.4
v 0.5 -0.0999999 2.4
v 0.5 0.2 2.4
v 0.5 2.1 2.4
v 1.3 -2 2.4
v 1.3 -0.0999999 2.4
v 1.3 0.2 2.4
v 1.3 2.1 2.4
v 2.1 -2 2.4
v 2.1 -0.0999999 2.4
v 2.1 0.2 2.4
v 2.1 2.1 2.4
v 2.9 -2 2.4
v 2.9 -0.0999999 2.4
v 2.9 0.2 2.4
v 2.9 2.1 2.4
v 3.7 -2 2.4
v 3.7 -0.0999999 2.4
v 3.7 0.2 2.4
v 3.7 2.1 2.4
v 4.5 -2.1 2.4
v 4.5 -2 2.4
v 4.5 -0.0999999 2.4
v 4.5 0.2 2.4
v -3.9 -0.0999999 1.9
v -3.9 0.2 1.9
v -3.2 -0.0999999 1.9
v -3.2 0.2 1.9
v -2.5 -0.0999999 1.9
v -2.5 0.2 1.9
v -1.8 -0.0999999 1.9
v -1.8 0.2 1.9
v -1 -0.0999999 1.9
v -1 0.2 1.9
v -0.3 -0.0999999 1.9
v -0.3 0.2 1.9
v 0.5 -0.0999999 1.9
v 0.5 0.2 1.9
v 1.3 -0.0999999 1.9
v 1.3 0.2 1.9
v 2.1 -0.0999999 1.9
v 2.1 0.2 1.9
v 2.9 -0.0999999 1.9
v 2.9 0.2 1.9
v 3.7 -0.0999999 1.9
v 3.7 0.2 1.9
v 4.5 -0.0999999 1.9
v 4.5 0.2 1.9
v -4.6 -2.1 1.8
v -4.6 2.1 1.8
v -3.9 -2.1 1.8
v -3.9 -2 1.8
v -3.9 2.1 1.8
v -3.2 -2 1.8
v -3.2 2.1 1.8
v -2.5 -2 1.8
v -2.5 2.1 1.8
v -1.8 -2 1.8
v -1.8 2.1 1.8
v -1 -2 1.8
v -1 2.1 1.8
v -0.3 -2 1.8
v -0.3 2.1 1.8
v 0.5 -2 1.8
v 0.5 2.1 1.8
v 1.3 -2 1.8
v 1.3 2.1 1.8
v 2.1 -2 1.8
v 2.1 2.1 1.8
v 2.9 -2 1.8
v 2.9 2.1 1.8
v 3.7 -2 1.8
v 3.7 2.1 1.8
v 4.5 -2.1 1.8
v 4.5 -2 1.8
v -4.6 -2.1 2.4
v -3.9 -2.1 2.4
v 4.5 -2.1 2.4
v -4.6 -2.1 1.8
v -3.9 -2.1 1.8
v 4.5 -2.1 1.8
v -3.9 -0.0999999 2.4
v -3.2 -0.0999999 2.4
v -2.5 -0.0999999 2.4
v -1.8 -0.0999999 2.4
v -1 -0.0999999 2.4
v -0.3 -0.0999999 2.4
v 0.5 -0.0999999 2.4
v 1.3 -0.0999999 2.4
v 2.1 -0.0999999 2.4
v 2.9 -0.0999999 2.4
v 3.7 -0.0999999 2.4
v 4.5 -0.0999999 2.4
v -3.9 -0.0999999 2.3
v -3.2 -0.0999999 2.3
v -2.5 -0.0999999 2.3
v -1.8 -0.0999999 2.3
v -1 -0.0999999 2.3
v -0.3 -0.0999999 2.3
v 0.5 -0.0999999 2.3
v 1.3 -0.0999999 2.3
v 2.1 -0.0999999 2.3
v 2.9 -0.0999999 2.3
v 3.7 -0.0999999 2.3
v 4.5 -0.0999999 2.3
v -3.9 -0.0999999 2
v -3.2 -0.0999999 2
v -2.5 -0.0999999 2
v -1.8 -0.0999999 2
v -1 -0.0999999 2
v -0.3 -0.0999999 2
v 0.5 -0.0999999 2
v 1.3 -0.0999999 2
v 2.1 -0.0999999 2
v 2.9 -0.0999999 2
v 3.7 -0.0999999 2
v 4.5 -0.0999999 2
v -3.9 -0.0999999 1.9
v -3.2 -0.0999999 1.9
v -2.5 -0.0999999 1.9
v -1.8 -0.0999999 1.9
v -1 -0.0999999 1.9
v -0.3 -0.0999999 1.9
v 0.5 -0.0999999 1.9
v 1.3 -0.0999999 1.9
v 2.1 -0.0999999 1.9
v 2.9 -0.0999999 1.9
v 3.7 -0.0999999 1.9
v 4.5 -0.0999999 1.9
v -3.9 -2 2.4
v -3.2 -2 2.4
v -2.5 -2 2.4
v -1.8 -2 2.4
v -1 -2 2.4
v -0.3 -2 2.4
v 0.5 -2 2.4
v 1.3 -2 2.4
v 2.1 -2 2.4
v 2.9 -2 2.4
v 3.7 -2 2.4
v 4.5 -2 2.4
v -3.9 -2 1.8
v -3.2 -2 1.8
v -2.5 -2 1.8
v -1.8 -2 1.8
v -1 -2 1.8
v -0.3 -2 1.8
v 0.5 -2 1.8
v 1.3 -2 1.8
v 2.1 -2 1.8
v 2.9 -2 1.8
v 3.7 -2 1.8
v 4.5 -2 1.8
v -3.9 0.2 2.4
v -3.2 0.2 2.4
v -2.5 0.2 2.4
v -1.8 0.2 2.4
v -1 0.2 2.4
v -0.3 0.2 2.4
v 0.5 0.2 2.4
v 1.3 0.2 2.4
v 2.1 0.2 2.4
v 2.9 0.2 2.4
v 3.7 0.2 2.4
v 4.5 0.2 2.4
v -3.9 0.2 1.9
v -3.2 0.2 1.9
v -2.5 0.2 1.9
v -1.8 0.2 1.9
v -1 0.2 1.9
v -0.3 0.2 1.9
v 0.5 0.2 1.9
v 1.3 0.2 1.9
v 2.1 0.2 1.9
v 2.9 0.2 1.9
v 3.7 0.2 1.9
v 4.5 0.2 1.9
v -4.6 2.1 2.4
v -3.9 2.1 2.4
v -3.2 2.1 2.4
v -2.5 2.1 2.4
v -1.8 2.1 2.4
v -1 2.1 2.4
v -0.3 2.1 2.4
v 0.5 2.1 2.4
v 1.3 2.1 2.4
v 2.1 2.1 2.4
v 2.9 2.1 2.4
v 3.7 2.1 2.4
v -4.6 2.1 1.8
v -3.9 2.1 1.8
v -3.2 2.1 1.8
v -2.5 2.1 1.8
v -1.8 2.1 1.8
v -1 2.1 1.8
v -0.3 2.1 1.8
v 0.5 2.1 1.8
v 1.3 2.1 1.8
v 2.1 2.1 1.8
v 2.9 2.1 1.8
v 3.7 2.1 1.8

# faces
f 3/2/1 2/2/1 1/2/1
f 4/2/1 2/2/1 3/2/1
f 7/2/1 6/2/1 5/2/1
f 8/2/1 6/2/1 7/2/1
f 9/2/1 6/2/1 8/2/1
f 10/2/1 6/2/1 9/2/1
f 12/2/1 6/2/1 10/2/1
f 13/2/1 12/2/1 11/2/1
f 14/2/1 6/2/1 12/2/1
f 14/2/1 12/2/1 13/2/1
f 17/2/1 16/2/1 15/2/1
f 18/2/1 16/2/1 17/2/1
f 19/2/1 16/2/1 18/2/1
f 20/2/1 16/2/1 19/2/1
f 22/2/1 16/2/1 20/2/1
f 23/2/1 22/2/1 21/2/1
f 24/2/1 16/2/1 22/2/1
f 24/2/1 22/2/1 23/2/1
f 27/2/1 26/2/1 25/2/1
f 28/2/1 26/2/1 27/2/1
f 29/2/1 26/2/1 28/2/1
f 30/2/1 26/2/1 29/2/1
f 32/2/1 26/2/1 30/2/1
f 33/2/1 32/2/1 31/2/1
f 34/2/1 26/2/1 32/2/1
f 34/2/1 32/2/1 33/2/1
f 37/2/1 36/2/1 35/2/1
f 38/2/1 36/2/1 37/2/1
f 39/2/1 36/2/1 38/2/1
f 40/2/1 36/2/1 39/2/1
f 42/2/1 36/2/1 40/2/1
f 43/2/1 42/2/1 41/2/1
f 44/2/1 36/2/1 42/2/1
f 44/2/1 42/2/1 43/2/1
f 47/2/1 46/2/1 45/2/1
f 48/2/1 46/2/1 47/2/1
f 49/2/1 46/2/1 48/2/1
f 50/2/1 46/2/1 49/2/1
f 52/2/1 46/2/1 50/2/1
f 53/2/1 52/2/1 51/2/1
f 54/2/1 46/2/1 52/2/1
f 54/2/1 52/2/1 53/2/1
f 55/2/2 56/2/2 57/2/2
f 57/2/2 56/2/2 58/2/2
f 58/2/2 56/2/2 59/2/2
f 59/2/2 56/2/2 60/2/2
f 60/2/2 56/2/2 62/2/2
f 61/2/2 62/2/2 63/2/2
f 62/2/2 56/2/2 64/2/2
f 63/2/2 62/2/2 64/2/2
f 65/2/2 66/2/2 67/2/2
f 67/2/2 66/2/2 68/2/2
f 68/2/2 66/2/2 69/2/2
f 69/2/2 66/2/2 70/2/2
f 70/2/2 66/2/2 72/2/2
f 71/2/2 72/2/2 73/2/2
f 72/2/2 66/2/2 74/2/2
f 73/2/2 72/2/2 74/2/2
f 75/2/2 76/2/2 77/2/2
f 77/2/2 76/2/2 78/2/2
f 78/2/2 76/2/2 79/2/2
f 79/2/2 76/2/2 80/2/2
f 80/2/2 76/2/2 82/2/2
f 81/2/2 82/2/2 83/2/2
f 82/2/2 76/2/2 84/2/2
f 83/2/2 82/2/2 84/2/2
f 85/2/2 86/2/2 87/2/2
f 87/2/2 86/2/2 88/2/2
f 88/2/2 86/2/2 89/2/2
f 89/2/2 86/2/2 90/2/2
f 90/2/2 86/2/2 92/2/2
f 91/2/2 92/2/2 93/2/2
f 92/2/2 86/2/2 94/2/2
f 93/2/2 92/2/2 94/2/2
f 95/2/2 96/2/2 97/2/2
f 97/2/2 96/2/2 98/2/2
f 98/2/2 96/2/2 99/2/2
f 99/2/2 96/2/2 100/2/2
f 100/2/2 96/2/2 102/2/2
f 101/2/2 102/2/2 103/2/2
f 102/2/2 96/2/2 104/2/2
f 103/2/2 102/2/2 104/2/2
f 105/2/2 106/2/2 107/2/2
f 107/2/2 106/2/2 108/2/2
f 108/2/2 106/2/2 109/2/2
f 109/2/2 106/2/2 110/2/2
f 110/2/2 106/2/2 112/2/2
f 111/2/2 112/2/2 113/2/2
f 112/2/2 106/2/2 114/2/2
f 113/2/2 112/2/2 114/2/2
f 115/1/2 116/1/2 117/1/2
f 117/1/2 116/1/2 118/1/2
f 119/1/2 120/1/2 123/1/2
f 120/2/2 121/2/2 123/2/2
f 121/1/2 122/1/2 124/1/2
f 123/2/2 121/2/2 124/2/2
f 119/1/2 123/1/2 125/1/2
f 123/1/2 124/1/2 125/1/2
f 124/1/2 122/1/2 126/1/2
f 125/1/2 124/1/2 126/1/2
f 129/2/3 128/2/3 127/2/3
f 130/2/3 128/2/3 129/2/3
f 131/2/3 128/2/3 130/2/3
f 132/2/3 128/2/3 131/2/3
f 133/2/3 128/2/3 132/2/3
f 134/1/3 130/1/3 129/1/3
f 135/1/3 132/1/3 131/1/3
f 136/1/3 132/1/3 135/1/3
f 138/1/3 134/1/3 129/1/3
f 138/2/3 137/2/3 136/2/3
f 138/2/3 136/2/3 135/2/3
f 138/2/3 135/2/3 134/2/3
f 139/2/3 137/2/3 138/2/3
f 140/2/3 137/2/3 139/2/3
f 141/2/3 137/2/3 140/2/3
f 142/1/3 138/1/3 129/1/3
f 143/1/3 140/1/3 139/1/3
f 144/1/3 140/1/3 143/1/3
f 146/1/3 142/1/3 129/1/3
f 146/2/3 145/2/3 144/2/3
f 146/2/3 144/2/3 143/2/3
f 146/2/3 143/2/3 142/2/3
f 147/2/3 145/2/3 146/2/3
f 148/2/3 145/2/3 147/2/3
f 149/2/3 145/2/3 148/2/3
f 150/1/3 146/1/3 129/1/3
f 151/1/3 148/1/3 147/1/3
f 152/1/3 148/1/3 151/1/3
f 154/1/3 150/1/3 129/1/3
f 154/2/3 153/2/3 152/2/3
f 154/2/3 152/2/3 151/2/3
f 154/2/3 151/2/3 150/2/3
f 155/2/3 153/2/3 154/2/3
f 156/2/3 153/2/3 155/2/3
f 157/2/3 153/2/3 156/2/3
f 158/1/3 154/1/3 129/1/3
f 159/1/3 156/1/3 155/1/3
f 160/1/3 156/1/3 159/1/3
f 162/1/3 158/1/3 129/1/3
f 162/2/3 161/2/3 160/2/3
f 162/2/3 160/2/3 159/2/3
f 162/2/3 159/2/3 158/2/3
f 163/2/3 161/2/3 162/2/3
f 164/2/3 161/2/3 163/2/3
f 165/2/3 161/2/3 164/2/3
f 166/1/3 162/1/3 129/1/3
f 167/1/3 164/1/3 163/1/3
f 168/1/3 164/1/3 167/1/3
f 170/1/3 166/1/3 129/1/3
f 170/2/3 169/2/3 168/2/3
f 170/2/3 168/2/3 167/2/3
f 170/2/3 167/2/3 166/2/3
f 171/2/3 169/2/3 170/2/3
f 172/2/3 169/2/3 171/2/3
f 173/2/3 169/2/3 172/2/3
f 174/1/3 170/1/3 129/1/3
f 175/1/3 170/1/3 174/1/3
f 176/1/3 172/1/3 171/1/3
f 177/1/3 172/1/3 176/1/3
f 178/1/4 179/1/4 180/1/4
f 180/1/4 179/1/4 181/1/4
f 182/1/4 183/1/4 184/1/4
f 184/1/4 183/1/4 185/1/4
f 186/1/4 187/1/4 188/1/4
f 188/1/4 187/1/4 189/1/4
f 190/1/4 191/1/4 192/1/4
f 192/1/4 191/1/4 193/1/4
f 194/1/4 195/1/4 196/1/4
f 196/1/4 195/1/4 197/1/4
f 198/1/4 199/1/4 200/1/4
f 200/1/4 199/1/4 201/1/4
f 202/2/4 203/2/4 204/2/4
f 204/2/4 203/2/4 205/2/4
f 205/2/4 203/2/4 206/2/4
f 204/1/4 205/1/4 207/1/4
f 204/1/4 207/1/4 209/1/4
f 207/2/4 208/2/4 209/2/4
f 209/2/4 208/2/4 210/2/4
f 204/1/4 209/1/4 211/1/4
f 204/1/4 211/1/4 213/1/4
f 211/2/4 212/2/4 213/2/4
f 213/2/4 212/2/4 214/2/4
f 204/1/4 213/1/4 215/1/4
f 204/1/4 215/1/4 217/1/4
f 215/2/4 216/2/4 217/2/4
f 217/2/4 216/2/4 218/2/4
f 204/1/4 217/1/4 219/1/4
f 204/1/4 219/1/4 221/1/4
f 219/2/4 220/2/4 221/2/4
f 221/2/4 220/2/4 222/2/4
f 204/1/4 221/1/4 223/1/4
f 204/1/4 223/1/4 225/1/4
f 223/2/4 224/2/4 225/2/4
f 225/2/4 224/2/4 226/2/4
f 204/1/4 225/1/4 227/1/4
f 227/1/4 225/1/4 228/1/4
f 232/2/5 230/2/5 229/2/5
f 233/1/5 231/1/5 230/1/5
f 233/2/5 230/2/5 232/2/5
f 234/1/5 231/1/5 233/1/5
f 247/1/5 236/1/5 235/1/5
f 248/1/5 236/1/5 247/1/5
f 249/1/5 238/1/5 237/1/5
f 250/1/5 238/1/5 249/1/5
f 251/1/5 240/1/5 239/1/5
f 252/1/5 240/1/5 251/1/5
f 253/1/5 242/1/5 241/1/5
f 254/1/5 242/1/5 253/1/5
f 255/1/5 244/1/5 243/1/5
f 256/1/5 244/1/5 255/1/5
f 257/1/5 246/1/5 245/1/5
f 258/1/5 246/1/5 257/1/5
f 259/2/5 248/2/5 247/2/5
f 260/2/5 248/2/5 259/2/5
f 261/2/5 250/2/5 249/2/5
f 262/2/5 250/2/5 261/2/5
f 263/2/5 252/2/5 251/2/5
f 264/2/5 252/2/5 263/2/5
f 265/2/5 254/2/5 253/2/5
f 266/2/5 254/2/5 265/2/5
f 267/2/5 256/2/5 255/2/5
f 268/2/5 256/2/5 267/2/5
f 269/2/5 258/2/5 257/2/5
f 270/2/5 258/2/5 269/2/5
f 271/1/5 260/1/5 259/1/5
f 272/1/5 260/1/5 271/1/5
f 273/1/5 262/1/5 261/1/5
f 274/1/5 262/1/5 273/1/5
f 275/1/5 264/1/5 263/1/5
f 276/1/5 264/1/5 275/1/5
f 277/1/5 266/1/5 265/1/5
f 278/1/5 266/1/5 277/1/5
f 279/1/5 268/1/5 267/1/5
f 280/1/5 268/1/5 279/1/5
f 281/1/5 270/1/5 269/1/5
f 282/1/5 270/1/5 281/1/5
f 283/1/6 284/1/6 295/1/6
f 295/1/6 284/1/6 296/1/6
f 285/1/6 286/1/6 297/1/6
f 297/1/6 286/1/6 298/1/6
f 287/1/6 288/1/6 299/1/6
f 299/1/6 288/1/6 300/1/6
f 289/1/6 290/1/6 301/1/6
f 301/1/6 290/1/6 302/1/6
f 291/1/6 292/1/6 303/1/6
f 303/1/6 292/1/6 304/1/6
f 293/1/6 294/1/6 305/1/6
f 305/1/6 294/1/6 306/1/6
f 307/1/6 308/1/6 319/1/6
f 319/1/6 308/1/6 320/1/6
f 309/1/6 310/1/6 321/1/6
f 321/1/6 310/1/6 322/1/6
f 311/1/6 312/1/6 323/1/6
f 323/1/6 312/1/6 324/1/6
f 313/1/6 314/1/6 325/1/6
f 325/1/6 314/1/6 326/1/6
f 315/1/6 316/1/6 327/1/6
f 327/1/6 316/1/6 328/1/6
f 317/1/6 318/1/6 329/1/6
f 329/1/6 318/1/6 330/1/6
f 331/2/6 332/2/6 343/2/6
f 343/2/6 332/2/6 344/2/6
f 333/2/6 334/2/6 345/2/6
f 345/2/6 334/2/6 346/2/6
f 335/2/6 336/2/6 347/2/6
f 347/2/6 336/2/6 348/2/6
f 337/2/6 338/2/6 349/2/6
f 349/2/6 338/2/6 350/2/6
f 339/2/6 340/2/6 351/2/6
f 351/2/6 340/2/6 352/2/6
f 341/2/6 342/2/6 353/2/6
f 353/2/6 342/2/6 354/2/6
