# MagicaVoxel @ Ephtracy

# group
o 

# material
mtllib Sword_Stick.mtl
usemtl palette

# normals
vn -1 0 0
vn 1 0 0
vn 0 0 1
vn 0 0 -1
vn 0 -1 0
vn 0 1 0

# texcoords
vt 0.123047 0.5
vt 0.208984 0.5
vt 0.396484 0.5
vt 0.466797 0.5
vt 0.494141 0.5
vt 0.498047 0.5
vt 0.677734 0.5
vt 0.681641 0.5
vt 0.732422 0.5
vt 0.736328 0.5
vt 0.740234 0.5
vt 0.912109 0.5

# verts
v -0.7 -0.9 2.8
v -0.7 -0.9 2.7
v -0.7 -0.8 2.8
v -0.7 -0.8 2.7
v -0.7 0.9 2.9
v -0.7 0.9 2.7
v -0.7 0.9 2.6
v -0.7 1 2.9
v -0.7 1 2.7
v -0.7 1 2.6
v -0.7 1.2 2.9
v -0.7 1.2 2.6
v -0.6 -1 2.8
v -0.6 -1 2.7
v -0.6 -0.9 2.9
v -0.6 -0.9 2.8
v -0.6 -0.9 2.7
v -0.6 -0.8 2.9
v -0.6 -0.8 2.8
v -0.5 0.6 2.8
v -0.5 0.6 2.7
v -0.5 0.9 2.8
v -0.5 0.9 2.7
v -0.3 -1.1 2.8
v -0.3 -1.1 2.7
v -0.3 -1 2.8
v -0.3 -1 2.7
v -0.2 1.2 2.9
v -0.2 1.2 2.7
v -0.2 1.2 2.6
v -0.2 1.3 2.9
v -0.2 1.3 2.7
v -0.2 1.3 2.6
v -0.1 -0.2 2.8
v -0.1 -0.2 2.7
v -0.1 -0.0999999 2.8
v -0.1 -0.0999999 2.7
v -0.1 0.3 2.8
v -0.1 0.3 2.7
v -0.1 0.6 2.8
v -0.1 0.6 2.7
v -0.1 1.3 2.8
v -0.1 1.3 2.7
v -0.1 1.5 2.8
v -0.1 1.5 2.7
v -0.1 1.6 2.8
v -0.1 1.6 2.7
v -0.1 1.7 2.8
v -0.1 1.7 2.7
v -0.1 2.4 2.8
v -0.1 2.4 2.7
v -0.1 2.5 2.8
v -0.1 2.5 2.7
v 5.96046e-008 -2.1 2.8
v 5.96046e-008 -2.1 2.7
v 5.96046e-008 -1.5 2.8
v 5.96046e-008 -1.5 2.7
v 5.96046e-008 -1.2 2.8
v 5.96046e-008 -1.2 2.7
v 5.96046e-008 -1.1 2.8
v 5.96046e-008 -1.1 2.7
v 5.96046e-008 -1 2.8
v 5.96046e-008 -1 2.7
v 5.96046e-008 -0.2 2.8
v 5.96046e-008 -0.2 2.7
v 5.96046e-008 2.5 2.8
v 5.96046e-008 2.5 2.7
v 5.96046e-008 2.6 2.8
v 5.96046e-008 2.6 2.7
v 0.1 -1.5 2.8
v 0.1 -1.5 2.7
v 0.1 -1.2 2.8
v 0.1 -1.2 2.7
v 0.5 -1.4 2.8
v 0.5 -1.4 2.7
v 0.5 -1.2 2.8
v 0.5 -1.2 2.7
v 0.5 -1.1 2.9
v 0.5 -1.1 2.8
v 0.5 -1 2.9
v 0.5 -1 2.8
v 0.5 -1 2.7
v 0.6 -1.1 2.7
v 0.6 -1.1 2.6
v 0.6 -1 2.7
v 0.6 -1 2.6
v -0.5 -0.9 2.9
v -0.5 -0.9 2.8
v -0.5 -0.9 2.7
v -0.5 -0.8 2.9
v -0.5 -0.8 2.8
v -0.5 -0.8 2.7
v -0.2 -1 2.8
v -0.2 -1 2.7
v -0.2 -0.9 2.8
v -0.2 -0.9 2.7
v 0.2 -2.1 2.8
v 0.2 -2.1 2.7
v 0.2 -1.6 2.8
v 0.2 -1.6 2.7
v 0.2 -1 2.8
v 0.2 -1 2.7
v 0.2 -0.2 2.8
v 0.2 -0.2 2.7
v 0.2 2.5 2.8
v 0.2 2.5 2.7
v 0.2 2.6 2.8
v 0.2 2.6 2.7
v 0.3 -1.6 2.8
v 0.3 -1.6 2.7
v 0.3 -1.5 2.8
v 0.3 -1.5 2.7
v 0.3 -1.4 2.8
v 0.3 -1.4 2.7
v 0.3 -1 2.8
v 0.3 -1 2.7
v 0.3 -0.2 2.8
v 0.3 -0.2 2.7
v 0.3 -0.0999999 2.8
v 0.3 -0.0999999 2.7
v 0.3 0.6 2.8
v 0.3 0.6 2.7
v 0.3 1.3 2.8
v 0.3 1.3 2.7
v 0.3 1.5 2.8
v 0.3 1.5 2.7
v 0.3 1.6 2.8
v 0.3 1.6 2.7
v 0.3 1.7 2.8
v 0.3 1.7 2.7
v 0.3 2.4 2.8
v 0.3 2.4 2.7
v 0.3 2.5 2.8
v 0.3 2.5 2.7
v 0.4 1.2 2.9
v 0.4 1.2 2.7
v 0.4 1.2 2.6
v 0.4 1.3 2.9
v 0.4 1.3 2.7
v 0.4 1.3 2.6
v 0.6 -1.5 2.8
v 0.6 -1.5 2.7
v 0.6 -1.2 2.8
v 0.6 -1.2 2.7
v 0.6 -1.1 2.9
v 0.6 -1.1 2.8
v 0.6 -1.1 2.7
v 0.6 -1 2.9
v 0.6 -1 2.8
v 0.7 -1.1 2.7
v 0.7 -1.1 2.6
v 0.7 -1 2.7
v 0.7 -1 2.6
v 0.7 0.6 2.8
v 0.7 0.6 2.7
v 0.7 0.9 2.8
v 0.7 0.9 2.7
v 0.8 -1.1 2.8
v 0.8 -1.1 2.7
v 0.8 -1 2.8
v 0.8 -1 2.7
v 0.9 0.9 2.9
v 0.9 0.9 2.7
v 0.9 0.9 2.6
v 0.9 1 2.9
v 0.9 1 2.7
v 0.9 1 2.6
v 0.9 1.2 2.9
v 0.9 1.2 2.6
v -0.7 0.9 2.9
v -0.7 1 2.9
v -0.7 1.2 2.9
v -0.6 -0.9 2.9
v -0.6 -0.8 2.9
v -0.5 -0.9 2.9
v -0.5 -0.8 2.9
v -0.2 1.2 2.9
v -0.2 1.3 2.9
v 0.4 1.2 2.9
v 0.4 1.3 2.9
v 0.5 -1.1 2.9
v 0.5 -1 2.9
v 0.6 -1.1 2.9
v 0.6 -1 2.9
v 0.9 0.9 2.9
v 0.9 1 2.9
v 0.9 1.2 2.9
v -0.7 -0.9 2.8
v -0.7 -0.8 2.8
v -0.6 -1 2.8
v -0.6 -0.9 2.8
v -0.6 -0.8 2.8
v -0.5 -0.9 2.8
v -0.5 0.6 2.8
v -0.5 0.9 2.8
v -0.4 -1 2.8
v -0.4 -0.9 2.8
v -0.3 -1.1 2.8
v -0.3 -1 2.8
v -0.2 -1 2.8
v -0.2 -0.9 2.8
v -0.2 0.8 2.8
v -0.2 0.9 2.8
v -0.1 -0.2 2.8
v -0.1 -0.0999999 2.8
v -0.1 0.3 2.8
v -0.1 0.6 2.8
v -0.1 0.7 2.8
v -0.1 0.8 2.8
v -0.1 1.3 2.8
v -0.1 1.5 2.8
v -0.1 1.6 2.8
v -0.1 1.7 2.8
v -0.1 2.4 2.8
v -0.1 2.5 2.8
v 5.96046e-008 -2.1 2.8
v 5.96046e-008 -1.5 2.8
v 5.96046e-008 -1.2 2.8
v 5.96046e-008 -1.1 2.8
v 5.96046e-008 -1 2.8
v 5.96046e-008 -0.2 2.8
v 5.96046e-008 0.2 2.8
v 5.96046e-008 0.3 2.8
v 5.96046e-008 0.6 2.8
v 5.96046e-008 0.7 2.8
v 5.96046e-008 2.5 2.8
v 5.96046e-008 2.6 2.8
v 0.1 -1.5 2.8
v 0.1 -1.2 2.8
v 0.1 -0.0999999 2.8
v 0.1 0.2 2.8
v 0.1 0.6 2.8
v 0.1 0.9 2.8
v 0.2 -2.1 2.8
v 0.2 -1.6 2.8
v 0.2 -1 2.8
v 0.2 -0.2 2.8
v 0.2 2.5 2.8
v 0.2 2.6 2.8
v 0.3 -1.6 2.8
v 0.3 -1.5 2.8
v 0.3 -1.4 2.8
v 0.3 -1 2.8
v 0.3 -0.2 2.8
v 0.3 -0.0999999 2.8
v 0.3 0.6 2.8
v 0.3 1.3 2.8
v 0.3 1.5 2.8
v 0.3 1.6 2.8
v 0.3 1.7 2.8
v 0.3 2.4 2.8
v 0.3 2.5 2.8
v 0.5 -1.4 2.8
v 0.5 -1.2 2.8
v 0.5 -1.1 2.8
v 0.6 -1.5 2.8
v 0.6 -1.2 2.8
v 0.6 -1.1 2.8
v 0.6 -1 2.8
v 0.7 -1.1 2.8
v 0.7 -1 2.8
v 0.7 0.6 2.8
v 0.7 0.9 2.8
v 0.8 -1.1 2.8
v 0.8 -1 2.8
v -0.7 -0.9 2.7
v -0.7 -0.8 2.7
v -0.6 -1 2.7
v -0.6 -0.9 2.7
v -0.6 -0.8 2.7
v -0.5 -0.9 2.7
v -0.5 -0.8 2.7
v -0.5 0.6 2.7
v -0.5 0.9 2.7
v -0.4 -1 2.7
v -0.4 -0.9 2.7
v -0.3 -1.1 2.7
v -0.3 -1 2.7
v -0.2 -1 2.7
v -0.2 -0.9 2.7
v -0.2 0.8 2.7
v -0.2 0.9 2.7
v -0.1 -0.2 2.7
v -0.1 -0.0999999 2.7
v -0.1 0.3 2.7
v -0.1 0.6 2.7
v -0.1 0.7 2.7
v -0.1 0.8 2.7
v -0.1 1.3 2.7
v -0.1 1.5 2.7
v -0.1 1.6 2.7
v -0.1 1.7 2.7
v -0.1 2.4 2.7
v -0.1 2.5 2.7
v 5.96046e-008 -2.1 2.7
v 5.96046e-008 -1.5 2.7
v 5.96046e-008 -1.2 2.7
v 5.96046e-008 -1.1 2.7
v 5.96046e-008 -1 2.7
v 5.96046e-008 -0.2 2.7
v 5.96046e-008 0.2 2.7
v 5.96046e-008 0.3 2.7
v 5.96046e-008 0.6 2.7
v 5.96046e-008 0.7 2.7
v 5.96046e-008 2.5 2.7
v 5.96046e-008 2.6 2.7
v 0.1 -1.5 2.7
v 0.1 -1.2 2.7
v 0.1 -0.0999999 2.7
v 0.1 0.2 2.7
v 0.1 0.6 2.7
v 0.1 0.9 2.7
v 0.2 -2.1 2.7
v 0.2 -1.6 2.7
v 0.2 -1 2.7
v 0.2 -0.2 2.7
v 0.2 2.5 2.7
v 0.2 2.6 2.7
v 0.3 -1.6 2.7
v 0.3 -1.5 2.7
v 0.3 -1.4 2.7
v 0.3 -1 2.7
v 0.3 -0.2 2.7
v 0.3 -0.0999999 2.7
v 0.3 0.6 2.7
v 0.3 1.3 2.7
v 0.3 1.5 2.7
v 0.3 1.6 2.7
v 0.3 1.7 2.7
v 0.3 2.4 2.7
v 0.3 2.5 2.7
v 0.5 -1.4 2.7
v 0.5 -1.2 2.7
v 0.5 -1 2.7
v 0.6 -1.5 2.7
v 0.6 -1.2 2.7
v 0.6 -1.1 2.7
v 0.6 -1 2.7
v 0.7 -1.1 2.7
v 0.7 -1 2.7
v 0.7 0.6 2.7
v 0.7 0.9 2.7
v 0.8 -1.1 2.7
v 0.8 -1 2.7
v -0.7 0.9 2.6
v -0.7 1 2.6
v -0.7 1.2 2.6
v -0.2 1.2 2.6
v -0.2 1.3 2.6
v 0.4 1.2 2.6
v 0.4 1.3 2.6
v 0.6 -1.1 2.6
v 0.6 -1 2.6
v 0.7 -1.1 2.6
v 0.7 -1 2.6
v 0.9 0.9 2.6
v 0.9 1 2.6
v 0.9 1.2 2.6
v 5.96046e-008 -2.1 2.8
v 0.2 -2.1 2.8
v 5.96046e-008 -2.1 2.7
v 0.2 -2.1 2.7
v 0.2 -1.6 2.8
v 0.3 -1.6 2.8
v 0.2 -1.6 2.7
v 0.3 -1.6 2.7
v 0.3 -1.5 2.8
v 0.6 -1.5 2.8
v 0.3 -1.5 2.7
v 0.6 -1.5 2.7
v 5.96046e-008 -1.2 2.8
v 0.1 -1.2 2.8
v 5.96046e-008 -1.2 2.7
v 0.1 -1.2 2.7
v 0.5 -1.1 2.9
v 0.6 -1.1 2.9
v -0.3 -1.1 2.8
v 5.96046e-008 -1.1 2.8
v 0.5 -1.1 2.8
v 0.6 -1.1 2.8
v 0.7 -1.1 2.8
v 0.8 -1.1 2.8
v -0.3 -1.1 2.7
v 5.96046e-008 -1.1 2.7
v 0.6 -1.1 2.7
v 0.7 -1.1 2.7
v 0.8 -1.1 2.7
v 0.6 -1.1 2.6
v 0.7 -1.1 2.6
v -0.6 -1 2.8
v -0.4 -1 2.8
v -0.3 -1 2.8
v -0.6 -1 2.7
v -0.4 -1 2.7
v -0.3 -1 2.7
v -0.6 -0.9 2.9
v -0.5 -0.9 2.9
v -0.7 -0.9 2.8
v -0.6 -0.9 2.8
v -0.5 -0.9 2.8
v -0.7 -0.9 2.7
v -0.6 -0.9 2.7
v -0.1 -0.2 2.8
v 5.96046e-008 -0.2 2.8
v 0.2 -0.2 2.8
v 0.3 -0.2 2.8
v -0.1 -0.2 2.7
v 5.96046e-008 -0.2 2.7
v 0.2 -0.2 2.7
v 0.3 -0.2 2.7
v -0.5 0.6 2.8
v -0.1 0.6 2.8
v 0.3 0.6 2.8
v 0.7 0.6 2.8
v -0.5 0.6 2.7
v -0.1 0.6 2.7
v 0.3 0.6 2.7
v 0.7 0.6 2.7
v -0.7 0.9 2.9
v 0.9 0.9 2.9
v -0.5 0.9 2.8
v -0.2 0.9 2.8
v 0.1 0.9 2.8
v 0.7 0.9 2.8
v -0.7 0.9 2.7
v -0.5 0.9 2.7
v -0.2 0.9 2.7
v 0.1 0.9 2.7
v 0.7 0.9 2.7
v 0.9 0.9 2.7
v -0.7 0.9 2.6
v 0.9 0.9 2.6
v 5.96046e-008 -1.5 2.8
v 0.1 -1.5 2.8
v 5.96046e-008 -1.5 2.7
v 0.1 -1.5 2.7
v 0.3 -1.4 2.8
v 0.5 -1.4 2.8
v 0.3 -1.4 2.7
v 0.5 -1.4 2.7
v 0.5 -1 2.9
v 0.6 -1 2.9
v -0.2 -1 2.8
v 5.96046e-008 -1 2.8
v 0.2 -1 2.8
v 0.3 -1 2.8
v 0.5 -1 2.8
v 0.6 -1 2.8
v 0.7 -1 2.8
v 0.8 -1 2.8
v -0.2 -1 2.7
v 5.96046e-008 -1 2.7
v 0.2 -1 2.7
v 0.3 -1 2.7
v 0.5 -1 2.7
v 0.6 -1 2.7
v 0.7 -1 2.7
v 0.8 -1 2.7
v 0.6 -1 2.6
v 0.7 -1 2.6
v -0.5 -0.9 2.8
v -0.4 -0.9 2.8
v -0.2 -0.9 2.8
v -0.5 -0.9 2.7
v -0.4 -0.9 2.7
v -0.2 -0.9 2.7
v -0.6 -0.8 2.9
v -0.5 -0.8 2.9
v -0.7 -0.8 2.8
v -0.6 -0.8 2.8
v -0.5 -0.8 2.8
v -0.7 -0.8 2.7
v -0.6 -0.8 2.7
v -0.5 -0.8 2.7
v -0.7 1.2 2.9
v -0.2 1.2 2.9
v 0.4 1.2 2.9
v 0.9 1.2 2.9
v -0.2 1.2 2.7
v 0.4 1.2 2.7
v -0.7 1.2 2.6
v -0.2 1.2 2.6
v 0.4 1.2 2.6
v 0.9 1.2 2.6
v -0.2 1.3 2.9
v 0.4 1.3 2.9
v -0.1 1.3 2.8
v 0.3 1.3 2.8
v -0.2 1.3 2.7
v -0.1 1.3 2.7
v 0.3 1.3 2.7
v 0.4 1.3 2.7
v -0.2 1.3 2.6
v 0.4 1.3 2.6
v -0.1 2.5 2.8
v 5.96046e-008 2.5 2.8
v 0.2 2.5 2.8
v 0.3 2.5 2.8
v -0.1 2.5 2.7
v 5.96046e-008 2.5 2.7
v 0.2 2.5 2.7
v 0.3 2.5 2.7
v 5.96046e-008 2.6 2.8
v 0.2 2.6 2.8
v 5.96046e-008 2.6 2.7
v 0.2 2.6 2.7

# faces
f 3/6/1 2/6/1 1/6/1
f 4/6/1 2/6/1 3/6/1
f 8/9/1 6/9/1 5/9/1
f 9/11/1 7/11/1 6/11/1
f 9/9/1 6/9/1 8/9/1
f 10/11/1 7/11/1 9/11/1
f 11/10/1 9/10/1 8/10/1
f 11/10/1 10/10/1 9/10/1
f 12/10/1 10/10/1 11/10/1
f 16/4/1 14/4/1 13/4/1
f 17/4/1 14/4/1 16/4/1
f 18/6/1 16/6/1 15/6/1
f 19/6/1 16/6/1 18/6/1
f 22/12/1 21/12/1 20/12/1
f 23/12/1 21/12/1 22/12/1
f 26/2/1 25/2/1 24/2/1
f 27/2/1 25/2/1 26/2/1
f 31/9/1 29/9/1 28/9/1
f 32/11/1 30/11/1 29/11/1
f 32/9/1 29/9/1 31/9/1
f 33/11/1 30/11/1 32/11/1
f 36/1/1 35/1/1 34/1/1
f 37/1/1 35/1/1 36/1/1
f 38/7/1 37/7/1 36/7/1
f 39/7/1 37/7/1 38/7/1
f 40/12/1 39/12/1 38/12/1
f 41/12/1 39/12/1 40/12/1
f 44/3/1 43/3/1 42/3/1
f 45/3/1 43/3/1 44/3/1
f 46/5/1 45/5/1 44/5/1
f 47/5/1 45/5/1 46/5/1
f 48/9/1 47/9/1 46/9/1
f 49/9/1 47/9/1 48/9/1
f 50/10/1 49/10/1 48/10/1
f 51/10/1 49/10/1 50/10/1
f 52/9/1 51/9/1 50/9/1
f 53/9/1 51/9/1 52/9/1
f 56/2/1 55/2/1 54/2/1
f 57/2/1 55/2/1 56/2/1
f 60/2/1 59/2/1 58/2/1
f 61/2/1 59/2/1 60/2/1
f 64/2/1 63/2/1 62/2/1
f 65/2/1 63/2/1 64/2/1
f 68/9/1 67/9/1 66/9/1
f 69/9/1 67/9/1 68/9/1
f 72/2/1 71/2/1 70/2/1
f 73/2/1 71/2/1 72/2/1
f 76/2/1 75/2/1 74/2/1
f 77/2/1 75/2/1 76/2/1
f 79/4/1 77/4/1 76/4/1
f 80/6/1 79/6/1 78/6/1
f 81/4/1 77/4/1 79/4/1
f 81/6/1 79/6/1 80/6/1
f 82/4/1 77/4/1 81/4/1
f 85/6/1 84/6/1 83/6/1
f 86/6/1 84/6/1 85/6/1
f 87/6/2 88/6/2 90/6/2
f 88/4/2 89/4/2 91/4/2
f 90/6/2 88/6/2 91/6/2
f 91/4/2 89/4/2 92/4/2
f 93/2/2 94/2/2 95/2/2
f 95/2/2 94/2/2 96/2/2
f 97/2/2 98/2/2 99/2/2
f 99/2/2 98/2/2 100/2/2
f 101/2/2 102/2/2 103/2/2
f 103/2/2 102/2/2 104/2/2
f 105/9/2 106/9/2 107/9/2
f 107/9/2 106/9/2 108/9/2
f 109/2/2 110/2/2 111/2/2
f 111/2/2 110/2/2 112/2/2
f 113/2/2 114/2/2 115/2/2
f 115/2/2 114/2/2 116/2/2
f 117/1/2 118/1/2 119/1/2
f 119/1/2 118/1/2 120/1/2
f 119/8/2 120/8/2 121/8/2
f 121/8/2 120/8/2 122/8/2
f 123/3/2 124/3/2 125/3/2
f 125/3/2 124/3/2 126/3/2
f 125/5/2 126/5/2 127/5/2
f 127/5/2 126/5/2 128/5/2
f 127/9/2 128/9/2 129/9/2
f 129/9/2 128/9/2 130/9/2
f 129/10/2 130/10/2 131/10/2
f 131/10/2 130/10/2 132/10/2
f 131/9/2 132/9/2 133/9/2
f 133/9/2 132/9/2 134/9/2
f 135/9/2 136/9/2 138/9/2
f 136/11/2 137/11/2 139/11/2
f 138/9/2 136/9/2 139/9/2
f 139/11/2 137/11/2 140/11/2
f 141/2/2 142/2/2 143/2/2
f 143/2/2 142/2/2 144/2/2
f 143/4/2 144/4/2 146/4/2
f 146/4/2 144/4/2 147/4/2
f 145/6/2 146/6/2 148/6/2
f 148/6/2 146/6/2 149/6/2
f 150/6/2 151/6/2 152/6/2
f 152/6/2 151/6/2 153/6/2
f 154/8/2 155/8/2 156/8/2
f 156/8/2 155/8/2 157/8/2
f 158/6/2 159/6/2 160/6/2
f 160/6/2 159/6/2 161/6/2
f 162/9/2 163/9/2 165/9/2
f 163/11/2 164/11/2 166/11/2
f 165/9/2 163/9/2 166/9/2
f 166/11/2 164/11/2 167/11/2
f 165/10/2 166/10/2 168/10/2
f 166/10/2 167/10/2 168/10/2
f 168/10/2 167/10/2 169/10/2
f 175/6/3 174/6/3 173/6/3
f 176/6/3 174/6/3 175/6/3
f 177/10/3 172/10/3 171/10/3
f 179/10/3 177/10/3 171/10/3
f 179/9/3 178/9/3 177/9/3
f 180/9/3 178/9/3 179/9/3
f 183/6/3 182/6/3 181/6/3
f 184/6/3 182/6/3 183/6/3
f 185/9/3 171/9/3 170/9/3
f 186/10/3 179/10/3 171/10/3
f 186/9/3 171/9/3 185/9/3
f 187/10/3 179/10/3 186/10/3
f 191/6/3 189/6/3 188/6/3
f 192/6/3 189/6/3 191/6/3
f 193/4/3 191/4/3 190/4/3
f 196/4/3 193/4/3 190/4/3
f 197/4/3 193/4/3 196/4/3
f 199/2/3 197/2/3 196/2/3
f 200/2/3 197/2/3 199/2/3
f 200/2/3 199/2/3 198/2/3
f 201/2/3 197/2/3 200/2/3
f 202/12/3 195/12/3 194/12/3
f 203/12/3 195/12/3 202/12/3
f 207/12/3 202/12/3 194/12/3
f 208/12/3 202/12/3 207/12/3
f 209/7/3 203/7/3 202/7/3
f 209/12/3 202/12/3 208/12/3
f 219/2/3 200/2/3 198/2/3
f 220/2/3 200/2/3 219/2/3
f 221/1/3 205/1/3 204/1/3
f 222/7/3 206/7/3 205/7/3
f 223/12/3 208/12/3 207/12/3
f 223/7/3 206/7/3 222/7/3
f 223/12/3 207/12/3 206/12/3
f 224/12/3 208/12/3 223/12/3
f 225/7/3 209/7/3 208/7/3
f 225/12/3 208/12/3 224/12/3
f 226/9/3 215/9/3 214/9/3
f 228/2/3 217/2/3 216/2/3
f 229/2/3 221/2/3 220/2/3
f 229/2/3 220/2/3 219/2/3
f 229/2/3 219/2/3 218/2/3
f 230/7/3 222/7/3 205/7/3
f 230/1/3 205/1/3 221/1/3
f 231/12/3 224/12/3 223/12/3
f 231/7/3 222/7/3 230/7/3
f 231/12/3 223/12/3 222/12/3
f 232/7/3 225/7/3 224/7/3
f 232/12/3 224/12/3 231/12/3
f 233/7/3 203/7/3 209/7/3
f 233/7/3 225/7/3 232/7/3
f 233/7/3 209/7/3 225/7/3
f 234/2/3 228/2/3 216/2/3
f 234/2/3 229/2/3 228/2/3
f 235/2/3 229/2/3 234/2/3
f 236/2/3 221/2/3 229/2/3
f 236/2/3 229/2/3 235/2/3
f 237/1/3 230/1/3 221/1/3
f 237/2/3 221/2/3 236/2/3
f 238/9/3 227/9/3 226/9/3
f 238/9/3 226/9/3 214/9/3
f 239/9/3 227/9/3 238/9/3
f 240/2/3 236/2/3 235/2/3
f 241/2/3 236/2/3 240/2/3
f 242/2/3 236/2/3 241/2/3
f 243/2/3 236/2/3 242/2/3
f 244/1/3 230/1/3 237/1/3
f 245/8/3 232/8/3 231/8/3
f 245/1/3 230/1/3 244/1/3
f 245/8/3 233/8/3 232/8/3
f 245/8/3 231/8/3 230/8/3
f 246/8/3 233/8/3 245/8/3
f 247/3/3 211/3/3 210/3/3
f 248/5/3 212/5/3 211/5/3
f 248/3/3 211/3/3 247/3/3
f 249/9/3 213/9/3 212/9/3
f 249/5/3 212/5/3 248/5/3
f 250/10/3 214/10/3 213/10/3
f 250/9/3 213/9/3 249/9/3
f 251/9/3 238/9/3 214/9/3
f 251/10/3 214/10/3 250/10/3
f 252/9/3 238/9/3 251/9/3
f 253/2/3 242/2/3 241/2/3
f 256/2/3 253/2/3 241/2/3
f 256/2/3 254/2/3 253/2/3
f 257/4/3 255/4/3 254/4/3
f 257/2/3 254/2/3 256/2/3
f 258/4/3 255/4/3 257/4/3
f 260/4/3 259/4/3 258/4/3
f 261/4/3 259/4/3 260/4/3
f 262/8/3 233/8/3 246/8/3
f 263/8/3 233/8/3 262/8/3
f 264/6/3 261/6/3 260/6/3
f 265/6/3 261/6/3 264/6/3
f 266/6/4 267/6/4 269/6/4
f 269/6/4 267/6/4 270/6/4
f 268/4/4 269/4/4 271/4/4
f 269/4/4 270/4/4 271/4/4
f 271/4/4 270/4/4 272/4/4
f 268/4/4 271/4/4 275/4/4
f 275/4/4 271/4/4 276/4/4
f 275/2/4 276/2/4 278/2/4
f 278/2/4 276/2/4 279/2/4
f 277/2/4 278/2/4 279/2/4
f 279/2/4 276/2/4 280/2/4
f 273/12/4 274/12/4 281/12/4
f 281/12/4 274/12/4 282/12/4
f 273/12/4 281/12/4 286/12/4
f 286/12/4 281/12/4 287/12/4
f 281/7/4 282/7/4 288/7/4
f 287/12/4 281/12/4 288/12/4
f 277/2/4 279/2/4 298/2/4
f 298/2/4 279/2/4 299/2/4
f 283/1/4 284/1/4 300/1/4
f 284/7/4 285/7/4 301/7/4
f 286/12/4 287/12/4 302/12/4
f 301/7/4 285/7/4 302/7/4
f 285/12/4 286/12/4 302/12/4
f 302/12/4 287/12/4 303/12/4
f 287/7/4 288/7/4 304/7/4
f 303/12/4 287/12/4 304/12/4
f 293/9/4 294/9/4 305/9/4
f 295/2/4 296/2/4 307/2/4
f 299/2/4 300/2/4 308/2/4
f 298/2/4 299/2/4 308/2/4
f 297/2/4 298/2/4 308/2/4
f 284/7/4 301/7/4 309/7/4
f 300/1/4 284/1/4 309/1/4
f 302/12/4 303/12/4 310/12/4
f 309/7/4 301/7/4 310/7/4
f 301/12/4 302/12/4 310/12/4
f 303/7/4 304/7/4 311/7/4
f 310/12/4 303/12/4 311/12/4
f 288/7/4 282/7/4 312/7/4
f 311/7/4 304/7/4 312/7/4
f 304/7/4 288/7/4 312/7/4
f 295/2/4 307/2/4 313/2/4
f 307/2/4 308/2/4 313/2/4
f 313/2/4 308/2/4 314/2/4
f 308/2/4 300/2/4 315/2/4
f 314/2/4 308/2/4 315/2/4
f 300/1/4 309/1/4 316/1/4
f 315/2/4 300/2/4 316/2/4
f 305/9/4 306/9/4 317/9/4
f 293/9/4 305/9/4 317/9/4
f 317/9/4 306/9/4 318/9/4
f 314/2/4 315/2/4 319/2/4
f 319/2/4 315/2/4 320/2/4
f 320/2/4 315/2/4 321/2/4
f 321/2/4 315/2/4 322/2/4
f 316/1/4 309/1/4 323/1/4
f 310/8/4 311/8/4 324/8/4
f 323/1/4 309/1/4 324/1/4
f 311/8/4 312/8/4 324/8/4
f 309/8/4 310/8/4 324/8/4
f 324/8/4 312/8/4 325/8/4
f 289/3/4 290/3/4 326/3/4
f 290/5/4 291/5/4 327/5/4
f 326/3/4 290/3/4 327/3/4
f 291/9/4 292/9/4 328/9/4
f 327/5/4 291/5/4 328/5/4
f 292/10/4 293/10/4 329/10/4
f 328/9/4 292/9/4 329/9/4
f 293/9/4 317/9/4 330/9/4
f 329/10/4 293/10/4 330/10/4
f 330/9/4 317/9/4 331/9/4
f 320/2/4 321/2/4 332/2/4
f 320/2/4 332/2/4 335/2/4
f 332/2/4 333/2/4 335/2/4
f 333/4/4 334/4/4 336/4/4
f 335/2/4 333/2/4 336/2/4
f 336/4/4 334/4/4 337/4/4
f 337/4/4 334/4/4 338/4/4
f 325/8/4 312/8/4 341/8/4
f 341/8/4 312/8/4 342/8/4
f 339/6/4 340/6/4 343/6/4
f 343/6/4 340/6/4 344/6/4
f 346/10/4 347/10/4 348/10/4
f 346/10/4 348/10/4 350/10/4
f 348/11/4 349/11/4 350/11/4
f 350/11/4 349/11/4 351/11/4
f 352/6/4 353/6/4 354/6/4
f 354/6/4 353/6/4 355/6/4
f 345/11/4 346/11/4 356/11/4
f 346/10/4 350/10/4 357/10/4
f 356/11/4 346/11/4 357/11/4
f 357/10/4 350/10/4 358/10/4
f 361/2/5 360/2/5 359/2/5
f 362/2/5 360/2/5 361/2/5
f 365/2/5 364/2/5 363/2/5
f 366/2/5 364/2/5 365/2/5
f 369/2/5 368/2/5 367/2/5
f 370/2/5 368/2/5 369/2/5
f 373/2/5 372/2/5 371/2/5
f 374/2/5 372/2/5 373/2/5
f 379/6/5 376/6/5 375/6/5
f 380/6/5 376/6/5 379/6/5
f 383/2/5 378/2/5 377/2/5
f 384/2/5 378/2/5 383/2/5
f 385/4/5 381/4/5 380/4/5
f 386/6/5 382/6/5 381/6/5
f 386/4/5 381/4/5 385/4/5
f 387/6/5 382/6/5 386/6/5
f 388/6/5 386/6/5 385/6/5
f 389/6/5 386/6/5 388/6/5
f 393/4/5 391/4/5 390/4/5
f 394/2/5 392/2/5 391/2/5
f 394/4/5 391/4/5 393/4/5
f 395/2/5 392/2/5 394/2/5
f 399/6/5 397/6/5 396/6/5
f 400/6/5 397/6/5 399/6/5
f 401/6/5 399/6/5 398/6/5
f 402/6/5 399/6/5 401/6/5
f 407/1/5 404/1/5 403/1/5
f 408/1/5 404/1/5 407/1/5
f 409/1/5 406/1/5 405/1/5
f 410/1/5 406/1/5 409/1/5
f 415/12/5 412/12/5 411/12/5
f 416/12/5 412/12/5 415/12/5
f 417/8/5 414/8/5 413/8/5
f 418/8/5 414/8/5 417/8/5
f 421/9/5 420/9/5 419/9/5
f 422/9/5 420/9/5 421/9/5
f 423/9/5 420/9/5 422/9/5
f 424/9/5 420/9/5 423/9/5
f 425/9/5 421/9/5 419/9/5
f 426/9/5 421/9/5 425/9/5
f 429/9/5 420/9/5 424/9/5
f 430/9/5 420/9/5 429/9/5
f 431/11/5 428/11/5 427/11/5
f 431/11/5 426/11/5 425/11/5
f 431/11/5 430/11/5 429/11/5
f 431/11/5 429/11/5 428/11/5
f 431/11/5 427/11/5 426/11/5
f 432/11/5 430/11/5 431/11/5
f 433/2/6 434/2/6 435/2/6
f 435/2/6 434/2/6 436/2/6
f 437/2/6 438/2/6 439/2/6
f 439/2/6 438/2/6 440/2/6
f 441/6/6 442/6/6 447/6/6
f 447/6/6 442/6/6 448/6/6
f 443/2/6 444/2/6 451/2/6
f 451/2/6 444/2/6 452/2/6
f 445/2/6 446/2/6 453/2/6
f 453/2/6 446/2/6 454/2/6
f 447/4/6 448/4/6 455/4/6
f 448/4/6 449/4/6 455/4/6
f 455/4/6 449/4/6 456/4/6
f 449/6/6 450/6/6 457/6/6
f 456/4/6 449/4/6 457/4/6
f 457/6/6 450/6/6 458/6/6
f 456/6/6 457/6/6 459/6/6
f 459/6/6 457/6/6 460/6/6
f 461/4/6 462/4/6 464/4/6
f 462/2/6 463/2/6 465/2/6
f 464/4/6 462/4/6 465/4/6
f 465/2/6 463/2/6 466/2/6
f 467/6/6 468/6/6 470/6/6
f 470/6/6 468/6/6 471/6/6
f 469/6/6 470/6/6 472/6/6
f 470/4/6 471/4/6 473/4/6
f 472/6/6 470/6/6 473/6/6
f 473/4/6 471/4/6 474/4/6
f 475/10/6 476/10/6 479/10/6
f 477/10/6 478/10/6 480/10/6
f 475/10/6 479/10/6 481/10/6
f 481/10/6 479/10/6 482/10/6
f 480/10/6 478/10/6 483/10/6
f 483/10/6 478/10/6 484/10/6
f 485/9/6 486/9/6 487/9/6
f 487/9/6 486/9/6 488/9/6
f 485/9/6 487/9/6 489/9/6
f 489/9/6 487/9/6 490/9/6
f 488/9/6 486/9/6 491/9/6
f 491/9/6 486/9/6 492/9/6
f 489/11/6 490/11/6 493/11/6
f 490/11/6 491/11/6 493/11/6
f 491/11/6 492/11/6 493/11/6
f 493/11/6 492/11/6 494/11/6
f 495/9/6 496/9/6 499/9/6
f 499/9/6 496/9/6 500/9/6
f 497/9/6 498/9/6 501/9/6
f 501/9/6 498/9/6 502/9/6
f 503/9/6 504/9/6 505/9/6
f 505/9/6 504/9/6 506/9/6
