# MagicaVoxel @ Ephtracy

# group
o 

# material
mtllib Gras.mtl
usemtl palette

# normals
vn -1 0 0
vn 1 0 0
vn 0 0 1
vn 0 0 -1
vn 0 -1 0
vn 0 1 0

# texcoords
vt 0.306641 0.5
vt 0.490234 0.5
vt 0.513672 0.5

# verts
v -4.9 -2.1 7.5
v -4.9 -2.1 -2.5
v -4.9 -1.2 7.5
v -4.9 -1.2 -1.6
v -4.9 -1.2 -2.2
v -4.9 -1.2 -2.5
v -4.9 -1 7.5
v -4.9 -1 -1.6
v -4.9 -1 -2.2
v -4.9 -1 -2.5
v 5.1 -2.1 7.5
v 5.1 -2.1 -2.5
v 5.1 -1.2 7.5
v 5.1 -1.2 -2.5
v 5.1 -1 7.5
v 5.1 -1 -2.5
v -4.9 -2.1 7.5
v -4.9 -1.2 7.5
v -4.9 -1 7.5
v 5.1 -2.1 7.5
v 5.1 -1.2 7.5
v 5.1 -1 7.5
v -4.9 -2.1 -2.5
v -4.9 -1.2 -2.5
v -4.9 -1 -2.5
v 4.2 -1.2 -2.5
v 4.2 -1.1 -2.5
v 4.8 -1.2 -2.5
v 4.8 -1.1 -2.5
v 5.1 -2.1 -2.5
v 5.1 -1.2 -2.5
v 5.1 -1 -2.5
v -4.9 -2.1 7.5
v 5.1 -2.1 7.5
v -4.9 -2.1 -2.5
v 5.1 -2.1 -2.5
v -4.9 -1 7.5
v 5.1 -1 7.5
v 4 -1 7
v 4.6 -1 7
v -4 -1 6.5
v -3.5 -1 6.5
v 4 -1 6.4
v 4.6 -1 6.4
v 2.9 -1 6.1
v 3.4 -1 6.1
v -4 -1 6
v -3.5 -1 6
v -3.1 -1 5.9
v -2.6 -1 5.9
v 2.9 -1 5.6
v 3.4 -1 5.6
v -3.1 -1 5.3
v -2.6 -1 5.3
v -3.6 -1 4.5
v -3 -1 4.5
v -3.6 -1 4
v -3 -1 4
v 3 -1 -0.1
v 3.5 -1 -0.1
v 4.4 -1 -0.2
v 5 -1 -0.2
v -4.4 -1 -0.5
v -3.7 -1 -0.5
v 3 -1 -0.6
v 3.5 -1 -0.6
v 4.4 -1 -0.800001
v 5 -1 -0.800001
v -4.4 -1 -1.2
v -3.7 -1 -1.2
v 3.4 -1 -1.5
v 4.1 -1 -1.5
v -4.9 -1 -1.6
v -4.4 -1 -1.6
v 3.4 -1 -2.1
v 4.1 -1 -2.1
v -4.9 -1 -2.2
v -4.4 -1 -2.2
v -4.9 -1 -2.5
v 5.1 -1 -2.5

# faces
f 3/1/1 2/1/1 1/1/1
f 4/1/1 2/1/1 3/1/1
f 5/1/1 2/1/1 4/1/1
f 6/1/1 2/1/1 5/1/1
f 7/3/1 4/3/1 3/3/1
f 8/2/1 5/2/1 4/2/1
f 8/3/1 4/3/1 7/3/1
f 9/3/1 6/3/1 5/3/1
f 9/2/1 5/2/1 8/2/1
f 10/3/1 6/3/1 9/3/1
f 11/1/2 12/1/2 13/1/2
f 13/1/2 12/1/2 14/1/2
f 13/3/2 14/3/2 15/3/2
f 15/3/2 14/3/2 16/3/2
f 20/1/3 18/1/3 17/1/3
f 21/3/3 19/3/3 18/3/3
f 21/1/3 18/1/3 20/1/3
f 22/3/3 19/3/3 21/3/3
f 23/1/4 24/1/4 26/1/4
f 24/3/4 25/3/4 26/3/4
f 26/3/4 25/3/4 27/3/4
f 23/1/4 26/1/4 28/1/4
f 26/2/4 27/2/4 28/2/4
f 27/3/4 25/3/4 29/3/4
f 28/2/4 27/2/4 29/2/4
f 23/1/4 28/1/4 30/1/4
f 28/3/4 29/3/4 31/3/4
f 30/1/4 28/1/4 31/1/4
f 29/3/4 25/3/4 32/3/4
f 31/3/4 29/3/4 32/3/4
f 35/1/5 34/1/5 33/1/5
f 36/1/5 34/1/5 35/1/5
f 37/3/6 38/3/6 39/3/6
f 39/3/6 38/3/6 40/3/6
f 37/3/6 39/3/6 41/3/6
f 41/3/6 39/3/6 42/3/6
f 39/2/6 40/2/6 43/2/6
f 42/3/6 39/3/6 43/3/6
f 40/3/6 38/3/6 44/3/6
f 43/2/6 40/2/6 44/2/6
f 42/3/6 43/3/6 45/3/6
f 43/3/6 44/3/6 45/3/6
f 45/3/6 44/3/6 46/3/6
f 41/2/6 42/2/6 47/2/6
f 37/3/6 41/3/6 47/3/6
f 42/3/6 45/3/6 48/3/6
f 47/2/6 42/2/6 48/2/6
f 47/3/6 48/3/6 49/3/6
f 48/3/6 45/3/6 49/3/6
f 49/3/6 45/3/6 50/3/6
f 45/2/6 46/2/6 51/2/6
f 50/3/6 45/3/6 51/3/6
f 46/3/6 44/3/6 52/3/6
f 51/2/6 46/2/6 52/2/6
f 49/2/6 50/2/6 53/2/6
f 47/3/6 49/3/6 53/3/6
f 50/3/6 51/3/6 54/3/6
f 53/2/6 50/2/6 54/2/6
f 51/3/6 52/3/6 54/3/6
f 47/3/6 53/3/6 55/3/6
f 53/3/6 54/3/6 55/3/6
f 55/3/6 54/3/6 56/3/6
f 47/3/6 55/3/6 57/3/6
f 55/2/6 56/2/6 57/2/6
f 56/3/6 54/3/6 58/3/6
f 57/2/6 56/2/6 58/2/6
f 54/3/6 52/3/6 59/3/6
f 58/3/6 54/3/6 59/3/6
f 57/3/6 58/3/6 59/3/6
f 52/3/6 44/3/6 60/3/6
f 59/3/6 52/3/6 60/3/6
f 60/3/6 44/3/6 61/3/6
f 44/3/6 38/3/6 62/3/6
f 61/3/6 44/3/6 62/3/6
f 47/3/6 57/3/6 63/3/6
f 57/3/6 59/3/6 63/3/6
f 37/3/6 47/3/6 63/3/6
f 63/3/6 59/3/6 64/3/6
f 59/2/6 60/2/6 65/2/6
f 64/3/6 59/3/6 65/3/6
f 60/3/6 61/3/6 66/3/6
f 65/2/6 60/2/6 66/2/6
f 61/2/6 62/2/6 67/2/6
f 66/3/6 61/3/6 67/3/6
f 65/3/6 66/3/6 67/3/6
f 62/3/6 38/3/6 68/3/6
f 67/2/6 62/2/6 68/2/6
f 37/3/6 63/3/6 69/3/6
f 63/2/6 64/2/6 69/2/6
f 64/3/6 65/3/6 70/3/6
f 69/2/6 64/2/6 70/2/6
f 65/3/6 67/3/6 70/3/6
f 67/3/6 68/3/6 70/3/6
f 69/3/6 70/3/6 71/3/6
f 70/3/6 68/3/6 71/3/6
f 71/3/6 68/3/6 72/3/6
f 37/3/6 69/3/6 73/3/6
f 69/3/6 71/3/6 73/3/6
f 73/3/6 71/3/6 74/3/6
f 71/2/6 72/2/6 75/2/6
f 74/3/6 71/3/6 75/3/6
f 72/3/6 68/3/6 76/3/6
f 75/2/6 72/2/6 76/2/6
f 73/2/6 74/2/6 77/2/6
f 74/3/6 75/3/6 78/3/6
f 77/2/6 74/2/6 78/2/6
f 75/3/6 76/3/6 78/3/6
f 77/3/6 78/3/6 79/3/6
f 68/3/6 38/3/6 80/3/6
f 79/3/6 78/3/6 80/3/6
f 76/3/6 68/3/6 80/3/6
f 78/3/6 76/3/6 80/3/6
